<?xml version="1.0" encoding="utf-8" standalone="no"?>
<!DOCTYPE svg PUBLIC "-//W3C//DTD SVG 1.1//EN"
  "http://www.w3.org/Graphics/SVG/1.1/DTD/svg11.dtd">
<svg xmlns:xlink="http://www.w3.org/1999/xlink" width="460.8pt" height="345.6pt" viewBox="0 0 460.8 345.6" xmlns="http://www.w3.org/2000/svg" version="1.1">
 <metadata>
  <rdf:RDF xmlns:dc="http://purl.org/dc/elements/1.1/" xmlns:cc="http://creativecommons.org/ns#" xmlns:rdf="http://www.w3.org/1999/02/22-rdf-syntax-ns#">
   <cc:Work>
    <dc:type rdf:resource="http://purl.org/dc/dcmitype/StillImage"/>
    <dc:date>2024-04-30T15:32:03.190732</dc:date>
    <dc:format>image/svg+xml</dc:format>
    <dc:creator>
     <cc:Agent>
      <dc:title>Matplotlib v3.8.4, https://matplotlib.org/</dc:title>
     </cc:Agent>
    </dc:creator>
   </cc:Work>
  </rdf:RDF>
 </metadata>
 <defs>
  <style type="text/css">*{stroke-linejoin: round; stroke-linecap: butt}</style>
 </defs>
 <g id="figure_1">
  <g id="patch_1">
   <path d="M 0 345.6 
L 460.8 345.6 
L 460.8 0 
L 0 0 
z
" style="fill: #ffffff"/>
  </g>
  <g id="axes_1">
   <g id="patch_2">
    <path d="M 46.08 311.04 
L 414.72 311.04 
L 414.72 34.56 
L 46.08 34.56 
z
" style="fill: #ffffff"/>
   </g>
   <g id="matplotlib.axis_1">
    <g id="xtick_1">
     <g id="line2d_1">
      <defs>
       <path id="m1dc22b72bc" d="M 0 0 
L 0 3.5 
" style="stroke: #000000; stroke-width: 0.8"/>
      </defs>
      <g>
       <use xlink:href="#m1dc22b72bc" x="46.08" y="311.04" style="stroke: #000000; stroke-width: 0.8"/>
      </g>
     </g>
     <g id="text_1">
      <!-- 0 -->
      <g transform="translate(40.99 330.1975) scale(0.16 -0.16)">
       <defs>
        <path id="DejaVuSans-30" d="M 2034 4250 
Q 1547 4250 1301 3770 
Q 1056 3291 1056 2328 
Q 1056 1369 1301 889 
Q 1547 409 2034 409 
Q 2525 409 2770 889 
Q 3016 1369 3016 2328 
Q 3016 3291 2770 3770 
Q 2525 4250 2034 4250 
z
M 2034 4750 
Q 2819 4750 3233 4129 
Q 3647 3509 3647 2328 
Q 3647 1150 3233 529 
Q 2819 -91 2034 -91 
Q 1250 -91 836 529 
Q 422 1150 422 2328 
Q 422 3509 836 4129 
Q 1250 4750 2034 4750 
z
" transform="scale(0.015625)"/>
       </defs>
       <use xlink:href="#DejaVuSans-30"/>
      </g>
     </g>
    </g>
    <g id="xtick_2">
     <g id="line2d_2">
      <g>
       <use xlink:href="#m1dc22b72bc" x="98.742857" y="311.04" style="stroke: #000000; stroke-width: 0.8"/>
      </g>
     </g>
     <g id="text_2">
      <!-- 1 -->
      <g transform="translate(93.652857 330.1975) scale(0.16 -0.16)">
       <defs>
        <path id="DejaVuSans-31" d="M 794 531 
L 1825 531 
L 1825 4091 
L 703 3866 
L 703 4441 
L 1819 4666 
L 2450 4666 
L 2450 531 
L 3481 531 
L 3481 0 
L 794 0 
L 794 531 
z
" transform="scale(0.015625)"/>
       </defs>
       <use xlink:href="#DejaVuSans-31"/>
      </g>
     </g>
    </g>
    <g id="xtick_3">
     <g id="line2d_3">
      <g>
       <use xlink:href="#m1dc22b72bc" x="151.405714" y="311.04" style="stroke: #000000; stroke-width: 0.8"/>
      </g>
     </g>
     <g id="text_3">
      <!-- 2 -->
      <g transform="translate(146.315714 330.1975) scale(0.16 -0.16)">
       <defs>
        <path id="DejaVuSans-32" d="M 1228 531 
L 3431 531 
L 3431 0 
L 469 0 
L 469 531 
Q 828 903 1448 1529 
Q 2069 2156 2228 2338 
Q 2531 2678 2651 2914 
Q 2772 3150 2772 3378 
Q 2772 3750 2511 3984 
Q 2250 4219 1831 4219 
Q 1534 4219 1204 4116 
Q 875 4013 500 3803 
L 500 4441 
Q 881 4594 1212 4672 
Q 1544 4750 1819 4750 
Q 2544 4750 2975 4387 
Q 3406 4025 3406 3419 
Q 3406 3131 3298 2873 
Q 3191 2616 2906 2266 
Q 2828 2175 2409 1742 
Q 1991 1309 1228 531 
z
" transform="scale(0.015625)"/>
       </defs>
       <use xlink:href="#DejaVuSans-32"/>
      </g>
     </g>
    </g>
    <g id="xtick_4">
     <g id="line2d_4">
      <g>
       <use xlink:href="#m1dc22b72bc" x="204.068571" y="311.04" style="stroke: #000000; stroke-width: 0.8"/>
      </g>
     </g>
     <g id="text_4">
      <!-- 3 -->
      <g transform="translate(198.978571 330.1975) scale(0.16 -0.16)">
       <defs>
        <path id="DejaVuSans-33" d="M 2597 2516 
Q 3050 2419 3304 2112 
Q 3559 1806 3559 1356 
Q 3559 666 3084 287 
Q 2609 -91 1734 -91 
Q 1441 -91 1130 -33 
Q 819 25 488 141 
L 488 750 
Q 750 597 1062 519 
Q 1375 441 1716 441 
Q 2309 441 2620 675 
Q 2931 909 2931 1356 
Q 2931 1769 2642 2001 
Q 2353 2234 1838 2234 
L 1294 2234 
L 1294 2753 
L 1863 2753 
Q 2328 2753 2575 2939 
Q 2822 3125 2822 3475 
Q 2822 3834 2567 4026 
Q 2313 4219 1838 4219 
Q 1578 4219 1281 4162 
Q 984 4106 628 3988 
L 628 4550 
Q 988 4650 1302 4700 
Q 1616 4750 1894 4750 
Q 2613 4750 3031 4423 
Q 3450 4097 3450 3541 
Q 3450 3153 3228 2886 
Q 3006 2619 2597 2516 
z
" transform="scale(0.015625)"/>
       </defs>
       <use xlink:href="#DejaVuSans-33"/>
      </g>
     </g>
    </g>
    <g id="xtick_5">
     <g id="line2d_5">
      <g>
       <use xlink:href="#m1dc22b72bc" x="256.731429" y="311.04" style="stroke: #000000; stroke-width: 0.8"/>
      </g>
     </g>
     <g id="text_5">
      <!-- 4 -->
      <g transform="translate(251.641429 330.1975) scale(0.16 -0.16)">
       <defs>
        <path id="DejaVuSans-34" d="M 2419 4116 
L 825 1625 
L 2419 1625 
L 2419 4116 
z
M 2253 4666 
L 3047 4666 
L 3047 1625 
L 3713 1625 
L 3713 1100 
L 3047 1100 
L 3047 0 
L 2419 0 
L 2419 1100 
L 313 1100 
L 313 1709 
L 2253 4666 
z
" transform="scale(0.015625)"/>
       </defs>
       <use xlink:href="#DejaVuSans-34"/>
      </g>
     </g>
    </g>
    <g id="xtick_6">
     <g id="line2d_6">
      <g>
       <use xlink:href="#m1dc22b72bc" x="309.394286" y="311.04" style="stroke: #000000; stroke-width: 0.8"/>
      </g>
     </g>
     <g id="text_6">
      <!-- 5 -->
      <g transform="translate(304.304286 330.1975) scale(0.16 -0.16)">
       <defs>
        <path id="DejaVuSans-35" d="M 691 4666 
L 3169 4666 
L 3169 4134 
L 1269 4134 
L 1269 2991 
Q 1406 3038 1543 3061 
Q 1681 3084 1819 3084 
Q 2600 3084 3056 2656 
Q 3513 2228 3513 1497 
Q 3513 744 3044 326 
Q 2575 -91 1722 -91 
Q 1428 -91 1123 -41 
Q 819 9 494 109 
L 494 744 
Q 775 591 1075 516 
Q 1375 441 1709 441 
Q 2250 441 2565 725 
Q 2881 1009 2881 1497 
Q 2881 1984 2565 2268 
Q 2250 2553 1709 2553 
Q 1456 2553 1204 2497 
Q 953 2441 691 2322 
L 691 4666 
z
" transform="scale(0.015625)"/>
       </defs>
       <use xlink:href="#DejaVuSans-35"/>
      </g>
     </g>
    </g>
    <g id="xtick_7">
     <g id="line2d_7">
      <g>
       <use xlink:href="#m1dc22b72bc" x="362.057143" y="311.04" style="stroke: #000000; stroke-width: 0.8"/>
      </g>
     </g>
     <g id="text_7">
      <!-- 6 -->
      <g transform="translate(356.967143 330.1975) scale(0.16 -0.16)">
       <defs>
        <path id="DejaVuSans-36" d="M 2113 2584 
Q 1688 2584 1439 2293 
Q 1191 2003 1191 1497 
Q 1191 994 1439 701 
Q 1688 409 2113 409 
Q 2538 409 2786 701 
Q 3034 994 3034 1497 
Q 3034 2003 2786 2293 
Q 2538 2584 2113 2584 
z
M 3366 4563 
L 3366 3988 
Q 3128 4100 2886 4159 
Q 2644 4219 2406 4219 
Q 1781 4219 1451 3797 
Q 1122 3375 1075 2522 
Q 1259 2794 1537 2939 
Q 1816 3084 2150 3084 
Q 2853 3084 3261 2657 
Q 3669 2231 3669 1497 
Q 3669 778 3244 343 
Q 2819 -91 2113 -91 
Q 1303 -91 875 529 
Q 447 1150 447 2328 
Q 447 3434 972 4092 
Q 1497 4750 2381 4750 
Q 2619 4750 2861 4703 
Q 3103 4656 3366 4563 
z
" transform="scale(0.015625)"/>
       </defs>
       <use xlink:href="#DejaVuSans-36"/>
      </g>
     </g>
    </g>
    <g id="xtick_8">
     <g id="line2d_8">
      <g>
       <use xlink:href="#m1dc22b72bc" x="414.72" y="311.04" style="stroke: #000000; stroke-width: 0.8"/>
      </g>
     </g>
     <g id="text_8">
      <!-- 7 -->
      <g transform="translate(409.63 330.1975) scale(0.16 -0.16)">
       <defs>
        <path id="DejaVuSans-37" d="M 525 4666 
L 3525 4666 
L 3525 4397 
L 1831 0 
L 1172 0 
L 2766 4134 
L 525 4134 
L 525 4666 
z
" transform="scale(0.015625)"/>
       </defs>
       <use xlink:href="#DejaVuSans-37"/>
      </g>
     </g>
    </g>
    <g id="text_9">
     <!-- Total leaf area index (m$^2$ m$^{-2}$) -->
     <g transform="translate(93.24 356.681562) scale(0.18 -0.18)">
      <defs>
       <path id="DejaVuSans-54" d="M -19 4666 
L 3928 4666 
L 3928 4134 
L 2272 4134 
L 2272 0 
L 1638 0 
L 1638 4134 
L -19 4134 
L -19 4666 
z
" transform="scale(0.015625)"/>
       <path id="DejaVuSans-6f" d="M 1959 3097 
Q 1497 3097 1228 2736 
Q 959 2375 959 1747 
Q 959 1119 1226 758 
Q 1494 397 1959 397 
Q 2419 397 2687 759 
Q 2956 1122 2956 1747 
Q 2956 2369 2687 2733 
Q 2419 3097 1959 3097 
z
M 1959 3584 
Q 2709 3584 3137 3096 
Q 3566 2609 3566 1747 
Q 3566 888 3137 398 
Q 2709 -91 1959 -91 
Q 1206 -91 779 398 
Q 353 888 353 1747 
Q 353 2609 779 3096 
Q 1206 3584 1959 3584 
z
" transform="scale(0.015625)"/>
       <path id="DejaVuSans-74" d="M 1172 4494 
L 1172 3500 
L 2356 3500 
L 2356 3053 
L 1172 3053 
L 1172 1153 
Q 1172 725 1289 603 
Q 1406 481 1766 481 
L 2356 481 
L 2356 0 
L 1766 0 
Q 1100 0 847 248 
Q 594 497 594 1153 
L 594 3053 
L 172 3053 
L 172 3500 
L 594 3500 
L 594 4494 
L 1172 4494 
z
" transform="scale(0.015625)"/>
       <path id="DejaVuSans-61" d="M 2194 1759 
Q 1497 1759 1228 1600 
Q 959 1441 959 1056 
Q 959 750 1161 570 
Q 1363 391 1709 391 
Q 2188 391 2477 730 
Q 2766 1069 2766 1631 
L 2766 1759 
L 2194 1759 
z
M 3341 1997 
L 3341 0 
L 2766 0 
L 2766 531 
Q 2569 213 2275 61 
Q 1981 -91 1556 -91 
Q 1019 -91 701 211 
Q 384 513 384 1019 
Q 384 1609 779 1909 
Q 1175 2209 1959 2209 
L 2766 2209 
L 2766 2266 
Q 2766 2663 2505 2880 
Q 2244 3097 1772 3097 
Q 1472 3097 1187 3025 
Q 903 2953 641 2809 
L 641 3341 
Q 956 3463 1253 3523 
Q 1550 3584 1831 3584 
Q 2591 3584 2966 3190 
Q 3341 2797 3341 1997 
z
" transform="scale(0.015625)"/>
       <path id="DejaVuSans-6c" d="M 603 4863 
L 1178 4863 
L 1178 0 
L 603 0 
L 603 4863 
z
" transform="scale(0.015625)"/>
       <path id="DejaVuSans-20" transform="scale(0.015625)"/>
       <path id="DejaVuSans-65" d="M 3597 1894 
L 3597 1613 
L 953 1613 
Q 991 1019 1311 708 
Q 1631 397 2203 397 
Q 2534 397 2845 478 
Q 3156 559 3463 722 
L 3463 178 
Q 3153 47 2828 -22 
Q 2503 -91 2169 -91 
Q 1331 -91 842 396 
Q 353 884 353 1716 
Q 353 2575 817 3079 
Q 1281 3584 2069 3584 
Q 2775 3584 3186 3129 
Q 3597 2675 3597 1894 
z
M 3022 2063 
Q 3016 2534 2758 2815 
Q 2500 3097 2075 3097 
Q 1594 3097 1305 2825 
Q 1016 2553 972 2059 
L 3022 2063 
z
" transform="scale(0.015625)"/>
       <path id="DejaVuSans-66" d="M 2375 4863 
L 2375 4384 
L 1825 4384 
Q 1516 4384 1395 4259 
Q 1275 4134 1275 3809 
L 1275 3500 
L 2222 3500 
L 2222 3053 
L 1275 3053 
L 1275 0 
L 697 0 
L 697 3053 
L 147 3053 
L 147 3500 
L 697 3500 
L 697 3744 
Q 697 4328 969 4595 
Q 1241 4863 1831 4863 
L 2375 4863 
z
" transform="scale(0.015625)"/>
       <path id="DejaVuSans-72" d="M 2631 2963 
Q 2534 3019 2420 3045 
Q 2306 3072 2169 3072 
Q 1681 3072 1420 2755 
Q 1159 2438 1159 1844 
L 1159 0 
L 581 0 
L 581 3500 
L 1159 3500 
L 1159 2956 
Q 1341 3275 1631 3429 
Q 1922 3584 2338 3584 
Q 2397 3584 2469 3576 
Q 2541 3569 2628 3553 
L 2631 2963 
z
" transform="scale(0.015625)"/>
       <path id="DejaVuSans-69" d="M 603 3500 
L 1178 3500 
L 1178 0 
L 603 0 
L 603 3500 
z
M 603 4863 
L 1178 4863 
L 1178 4134 
L 603 4134 
L 603 4863 
z
" transform="scale(0.015625)"/>
       <path id="DejaVuSans-6e" d="M 3513 2113 
L 3513 0 
L 2938 0 
L 2938 2094 
Q 2938 2591 2744 2837 
Q 2550 3084 2163 3084 
Q 1697 3084 1428 2787 
Q 1159 2491 1159 1978 
L 1159 0 
L 581 0 
L 581 3500 
L 1159 3500 
L 1159 2956 
Q 1366 3272 1645 3428 
Q 1925 3584 2291 3584 
Q 2894 3584 3203 3211 
Q 3513 2838 3513 2113 
z
" transform="scale(0.015625)"/>
       <path id="DejaVuSans-64" d="M 2906 2969 
L 2906 4863 
L 3481 4863 
L 3481 0 
L 2906 0 
L 2906 525 
Q 2725 213 2448 61 
Q 2172 -91 1784 -91 
Q 1150 -91 751 415 
Q 353 922 353 1747 
Q 353 2572 751 3078 
Q 1150 3584 1784 3584 
Q 2172 3584 2448 3432 
Q 2725 3281 2906 2969 
z
M 947 1747 
Q 947 1113 1208 752 
Q 1469 391 1925 391 
Q 2381 391 2643 752 
Q 2906 1113 2906 1747 
Q 2906 2381 2643 2742 
Q 2381 3103 1925 3103 
Q 1469 3103 1208 2742 
Q 947 2381 947 1747 
z
" transform="scale(0.015625)"/>
       <path id="DejaVuSans-78" d="M 3513 3500 
L 2247 1797 
L 3578 0 
L 2900 0 
L 1881 1375 
L 863 0 
L 184 0 
L 1544 1831 
L 300 3500 
L 978 3500 
L 1906 2253 
L 2834 3500 
L 3513 3500 
z
" transform="scale(0.015625)"/>
       <path id="DejaVuSans-28" d="M 1984 4856 
Q 1566 4138 1362 3434 
Q 1159 2731 1159 2009 
Q 1159 1288 1364 580 
Q 1569 -128 1984 -844 
L 1484 -844 
Q 1016 -109 783 600 
Q 550 1309 550 2009 
Q 550 2706 781 3412 
Q 1013 4119 1484 4856 
L 1984 4856 
z
" transform="scale(0.015625)"/>
       <path id="DejaVuSans-6d" d="M 3328 2828 
Q 3544 3216 3844 3400 
Q 4144 3584 4550 3584 
Q 5097 3584 5394 3201 
Q 5691 2819 5691 2113 
L 5691 0 
L 5113 0 
L 5113 2094 
Q 5113 2597 4934 2840 
Q 4756 3084 4391 3084 
Q 3944 3084 3684 2787 
Q 3425 2491 3425 1978 
L 3425 0 
L 2847 0 
L 2847 2094 
Q 2847 2600 2669 2842 
Q 2491 3084 2119 3084 
Q 1678 3084 1418 2786 
Q 1159 2488 1159 1978 
L 1159 0 
L 581 0 
L 581 3500 
L 1159 3500 
L 1159 2956 
Q 1356 3278 1631 3431 
Q 1906 3584 2284 3584 
Q 2666 3584 2933 3390 
Q 3200 3197 3328 2828 
z
" transform="scale(0.015625)"/>
       <path id="DejaVuSans-2212" d="M 678 2272 
L 4684 2272 
L 4684 1741 
L 678 1741 
L 678 2272 
z
" transform="scale(0.015625)"/>
       <path id="DejaVuSans-29" d="M 513 4856 
L 1013 4856 
Q 1481 4119 1714 3412 
Q 1947 2706 1947 2009 
Q 1947 1309 1714 600 
Q 1481 -109 1013 -844 
L 513 -844 
Q 928 -128 1133 580 
Q 1338 1288 1338 2009 
Q 1338 2731 1133 3434 
Q 928 4138 513 4856 
z
" transform="scale(0.015625)"/>
      </defs>
      <use xlink:href="#DejaVuSans-54" transform="translate(0 0.765625)"/>
      <use xlink:href="#DejaVuSans-6f" transform="translate(61.083984 0.765625)"/>
      <use xlink:href="#DejaVuSans-74" transform="translate(122.265625 0.765625)"/>
      <use xlink:href="#DejaVuSans-61" transform="translate(161.474609 0.765625)"/>
      <use xlink:href="#DejaVuSans-6c" transform="translate(222.753906 0.765625)"/>
      <use xlink:href="#DejaVuSans-20" transform="translate(250.537109 0.765625)"/>
      <use xlink:href="#DejaVuSans-6c" transform="translate(282.324219 0.765625)"/>
      <use xlink:href="#DejaVuSans-65" transform="translate(310.107422 0.765625)"/>
      <use xlink:href="#DejaVuSans-61" transform="translate(371.630859 0.765625)"/>
      <use xlink:href="#DejaVuSans-66" transform="translate(432.910156 0.765625)"/>
      <use xlink:href="#DejaVuSans-20" transform="translate(468.115234 0.765625)"/>
      <use xlink:href="#DejaVuSans-61" transform="translate(499.902344 0.765625)"/>
      <use xlink:href="#DejaVuSans-72" transform="translate(561.181641 0.765625)"/>
      <use xlink:href="#DejaVuSans-65" transform="translate(602.294922 0.765625)"/>
      <use xlink:href="#DejaVuSans-61" transform="translate(663.818359 0.765625)"/>
      <use xlink:href="#DejaVuSans-20" transform="translate(725.097656 0.765625)"/>
      <use xlink:href="#DejaVuSans-69" transform="translate(756.884766 0.765625)"/>
      <use xlink:href="#DejaVuSans-6e" transform="translate(784.667969 0.765625)"/>
      <use xlink:href="#DejaVuSans-64" transform="translate(848.046875 0.765625)"/>
      <use xlink:href="#DejaVuSans-65" transform="translate(911.523438 0.765625)"/>
      <use xlink:href="#DejaVuSans-78" transform="translate(973.046875 0.765625)"/>
      <use xlink:href="#DejaVuSans-20" transform="translate(1032.226562 0.765625)"/>
      <use xlink:href="#DejaVuSans-28" transform="translate(1064.013672 0.765625)"/>
      <use xlink:href="#DejaVuSans-6d" transform="translate(1103.027344 0.765625)"/>
      <use xlink:href="#DejaVuSans-32" transform="translate(1201.396484 39.046875) scale(0.7)"/>
      <use xlink:href="#DejaVuSans-20" transform="translate(1248.666992 0.765625)"/>
      <use xlink:href="#DejaVuSans-6d" transform="translate(1280.454102 0.765625)"/>
      <use xlink:href="#DejaVuSans-2212" transform="translate(1378.823242 39.046875) scale(0.7)"/>
      <use xlink:href="#DejaVuSans-32" transform="translate(1437.475586 39.046875) scale(0.7)"/>
      <use xlink:href="#DejaVuSans-29" transform="translate(1484.746094 0.765625)"/>
     </g>
    </g>
   </g>
   <g id="matplotlib.axis_2">
    <g id="ytick_1">
     <g id="line2d_9">
      <defs>
       <path id="m2a7276a4ec" d="M 0 0 
L -3.5 0 
" style="stroke: #000000; stroke-width: 0.8"/>
      </defs>
      <g>
       <use xlink:href="#m2a7276a4ec" x="46.08" y="311.04" style="stroke: #000000; stroke-width: 0.8"/>
      </g>
     </g>
     <g id="text_10">
      <!-- 0.0 -->
      <g transform="translate(13.635 317.11875) scale(0.16 -0.16)">
       <defs>
        <path id="DejaVuSans-2e" d="M 684 794 
L 1344 794 
L 1344 0 
L 684 0 
L 684 794 
z
" transform="scale(0.015625)"/>
       </defs>
       <use xlink:href="#DejaVuSans-30"/>
       <use xlink:href="#DejaVuSans-2e" x="63.623047"/>
       <use xlink:href="#DejaVuSans-30" x="95.410156"/>
      </g>
     </g>
    </g>
    <g id="ytick_2">
     <g id="line2d_10">
      <g>
       <use xlink:href="#m2a7276a4ec" x="46.08" y="255.744" style="stroke: #000000; stroke-width: 0.8"/>
      </g>
     </g>
     <g id="text_11">
      <!-- 0.2 -->
      <g transform="translate(13.635 261.82275) scale(0.16 -0.16)">
       <use xlink:href="#DejaVuSans-30"/>
       <use xlink:href="#DejaVuSans-2e" x="63.623047"/>
       <use xlink:href="#DejaVuSans-32" x="95.410156"/>
      </g>
     </g>
    </g>
    <g id="ytick_3">
     <g id="line2d_11">
      <g>
       <use xlink:href="#m2a7276a4ec" x="46.08" y="200.448" style="stroke: #000000; stroke-width: 0.8"/>
      </g>
     </g>
     <g id="text_12">
      <!-- 0.4 -->
      <g transform="translate(13.635 206.52675) scale(0.16 -0.16)">
       <use xlink:href="#DejaVuSans-30"/>
       <use xlink:href="#DejaVuSans-2e" x="63.623047"/>
       <use xlink:href="#DejaVuSans-34" x="95.410156"/>
      </g>
     </g>
    </g>
    <g id="ytick_4">
     <g id="line2d_12">
      <g>
       <use xlink:href="#m2a7276a4ec" x="46.08" y="145.152" style="stroke: #000000; stroke-width: 0.8"/>
      </g>
     </g>
     <g id="text_13">
      <!-- 0.6 -->
      <g transform="translate(13.635 151.23075) scale(0.16 -0.16)">
       <use xlink:href="#DejaVuSans-30"/>
       <use xlink:href="#DejaVuSans-2e" x="63.623047"/>
       <use xlink:href="#DejaVuSans-36" x="95.410156"/>
      </g>
     </g>
    </g>
    <g id="ytick_5">
     <g id="line2d_13">
      <g>
       <use xlink:href="#m2a7276a4ec" x="46.08" y="89.856" style="stroke: #000000; stroke-width: 0.8"/>
      </g>
     </g>
     <g id="text_14">
      <!-- 0.8 -->
      <g transform="translate(13.635 95.93475) scale(0.16 -0.16)">
       <defs>
        <path id="DejaVuSans-38" d="M 2034 2216 
Q 1584 2216 1326 1975 
Q 1069 1734 1069 1313 
Q 1069 891 1326 650 
Q 1584 409 2034 409 
Q 2484 409 2743 651 
Q 3003 894 3003 1313 
Q 3003 1734 2745 1975 
Q 2488 2216 2034 2216 
z
M 1403 2484 
Q 997 2584 770 2862 
Q 544 3141 544 3541 
Q 544 4100 942 4425 
Q 1341 4750 2034 4750 
Q 2731 4750 3128 4425 
Q 3525 4100 3525 3541 
Q 3525 3141 3298 2862 
Q 3072 2584 2669 2484 
Q 3125 2378 3379 2068 
Q 3634 1759 3634 1313 
Q 3634 634 3220 271 
Q 2806 -91 2034 -91 
Q 1263 -91 848 271 
Q 434 634 434 1313 
Q 434 1759 690 2068 
Q 947 2378 1403 2484 
z
M 1172 3481 
Q 1172 3119 1398 2916 
Q 1625 2713 2034 2713 
Q 2441 2713 2670 2916 
Q 2900 3119 2900 3481 
Q 2900 3844 2670 4047 
Q 2441 4250 2034 4250 
Q 1625 4250 1398 4047 
Q 1172 3844 1172 3481 
z
" transform="scale(0.015625)"/>
       </defs>
       <use xlink:href="#DejaVuSans-30"/>
       <use xlink:href="#DejaVuSans-2e" x="63.623047"/>
       <use xlink:href="#DejaVuSans-38" x="95.410156"/>
      </g>
     </g>
    </g>
    <g id="ytick_6">
     <g id="line2d_14">
      <g>
       <use xlink:href="#m2a7276a4ec" x="46.08" y="34.56" style="stroke: #000000; stroke-width: 0.8"/>
      </g>
     </g>
     <g id="text_15">
      <!-- 1.0 -->
      <g transform="translate(13.635 40.63875) scale(0.16 -0.16)">
       <use xlink:href="#DejaVuSans-31"/>
       <use xlink:href="#DejaVuSans-2e" x="63.623047"/>
       <use xlink:href="#DejaVuSans-30" x="95.410156"/>
      </g>
     </g>
    </g>
    <g id="text_16">
     <!-- Light interception -->
     <g transform="translate(1.891563 252.327656) rotate(-90) scale(0.18 -0.18)">
      <defs>
       <path id="DejaVuSans-4c" d="M 628 4666 
L 1259 4666 
L 1259 531 
L 3531 531 
L 3531 0 
L 628 0 
L 628 4666 
z
" transform="scale(0.015625)"/>
       <path id="DejaVuSans-67" d="M 2906 1791 
Q 2906 2416 2648 2759 
Q 2391 3103 1925 3103 
Q 1463 3103 1205 2759 
Q 947 2416 947 1791 
Q 947 1169 1205 825 
Q 1463 481 1925 481 
Q 2391 481 2648 825 
Q 2906 1169 2906 1791 
z
M 3481 434 
Q 3481 -459 3084 -895 
Q 2688 -1331 1869 -1331 
Q 1566 -1331 1297 -1286 
Q 1028 -1241 775 -1147 
L 775 -588 
Q 1028 -725 1275 -790 
Q 1522 -856 1778 -856 
Q 2344 -856 2625 -561 
Q 2906 -266 2906 331 
L 2906 616 
Q 2728 306 2450 153 
Q 2172 0 1784 0 
Q 1141 0 747 490 
Q 353 981 353 1791 
Q 353 2603 747 3093 
Q 1141 3584 1784 3584 
Q 2172 3584 2450 3431 
Q 2728 3278 2906 2969 
L 2906 3500 
L 3481 3500 
L 3481 434 
z
" transform="scale(0.015625)"/>
       <path id="DejaVuSans-68" d="M 3513 2113 
L 3513 0 
L 2938 0 
L 2938 2094 
Q 2938 2591 2744 2837 
Q 2550 3084 2163 3084 
Q 1697 3084 1428 2787 
Q 1159 2491 1159 1978 
L 1159 0 
L 581 0 
L 581 4863 
L 1159 4863 
L 1159 2956 
Q 1366 3272 1645 3428 
Q 1925 3584 2291 3584 
Q 2894 3584 3203 3211 
Q 3513 2838 3513 2113 
z
" transform="scale(0.015625)"/>
       <path id="DejaVuSans-63" d="M 3122 3366 
L 3122 2828 
Q 2878 2963 2633 3030 
Q 2388 3097 2138 3097 
Q 1578 3097 1268 2742 
Q 959 2388 959 1747 
Q 959 1106 1268 751 
Q 1578 397 2138 397 
Q 2388 397 2633 464 
Q 2878 531 3122 666 
L 3122 134 
Q 2881 22 2623 -34 
Q 2366 -91 2075 -91 
Q 1284 -91 818 406 
Q 353 903 353 1747 
Q 353 2603 823 3093 
Q 1294 3584 2113 3584 
Q 2378 3584 2631 3529 
Q 2884 3475 3122 3366 
z
" transform="scale(0.015625)"/>
       <path id="DejaVuSans-70" d="M 1159 525 
L 1159 -1331 
L 581 -1331 
L 581 3500 
L 1159 3500 
L 1159 2969 
Q 1341 3281 1617 3432 
Q 1894 3584 2278 3584 
Q 2916 3584 3314 3078 
Q 3713 2572 3713 1747 
Q 3713 922 3314 415 
Q 2916 -91 2278 -91 
Q 1894 -91 1617 61 
Q 1341 213 1159 525 
z
M 3116 1747 
Q 3116 2381 2855 2742 
Q 2594 3103 2138 3103 
Q 1681 3103 1420 2742 
Q 1159 2381 1159 1747 
Q 1159 1113 1420 752 
Q 1681 391 2138 391 
Q 2594 391 2855 752 
Q 3116 1113 3116 1747 
z
" transform="scale(0.015625)"/>
      </defs>
      <use xlink:href="#DejaVuSans-4c"/>
      <use xlink:href="#DejaVuSans-69" x="55.712891"/>
      <use xlink:href="#DejaVuSans-67" x="83.496094"/>
      <use xlink:href="#DejaVuSans-68" x="146.972656"/>
      <use xlink:href="#DejaVuSans-74" x="210.351562"/>
      <use xlink:href="#DejaVuSans-20" x="249.560547"/>
      <use xlink:href="#DejaVuSans-69" x="281.347656"/>
      <use xlink:href="#DejaVuSans-6e" x="309.130859"/>
      <use xlink:href="#DejaVuSans-74" x="372.509766"/>
      <use xlink:href="#DejaVuSans-65" x="411.71875"/>
      <use xlink:href="#DejaVuSans-72" x="473.242188"/>
      <use xlink:href="#DejaVuSans-63" x="512.105469"/>
      <use xlink:href="#DejaVuSans-65" x="567.085938"/>
      <use xlink:href="#DejaVuSans-70" x="628.609375"/>
      <use xlink:href="#DejaVuSans-74" x="692.085938"/>
      <use xlink:href="#DejaVuSans-69" x="731.294922"/>
      <use xlink:href="#DejaVuSans-6f" x="759.078125"/>
      <use xlink:href="#DejaVuSans-6e" x="820.259766"/>
     </g>
    </g>
   </g>
   <g id="line2d_15">
    <path d="M 46.601362 310.494192 
L 87.093833 276.637095 
L 127.586304 255.292284 
L 168.078775 241.835698 
L 208.571246 233.352151 
L 249.063717 228.003798 
L 289.556187 224.631992 
L 330.048658 222.506276 
L 370.541129 221.166143 
L 411.0336 220.321272 
" clip-path="url(#pcc8c5026f0)" style="fill: none; stroke: #000000; stroke-width: 1.5; stroke-linecap: square"/>
    <defs>
     <path id="m4815fe5216" d="M 0 -3 
L -3 3 
L 3 3 
z
" style="stroke: #000000; stroke-linejoin: miter"/>
    </defs>
    <g clip-path="url(#pcc8c5026f0)">
     <use xlink:href="#m4815fe5216" x="46.601362" y="310.494192" style="fill: #ffffff; stroke: #000000; stroke-linejoin: miter"/>
     <use xlink:href="#m4815fe5216" x="87.093833" y="276.637095" style="fill: #ffffff; stroke: #000000; stroke-linejoin: miter"/>
     <use xlink:href="#m4815fe5216" x="127.586304" y="255.292284" style="fill: #ffffff; stroke: #000000; stroke-linejoin: miter"/>
     <use xlink:href="#m4815fe5216" x="168.078775" y="241.835698" style="fill: #ffffff; stroke: #000000; stroke-linejoin: miter"/>
     <use xlink:href="#m4815fe5216" x="208.571246" y="233.352151" style="fill: #ffffff; stroke: #000000; stroke-linejoin: miter"/>
     <use xlink:href="#m4815fe5216" x="249.063717" y="228.003798" style="fill: #ffffff; stroke: #000000; stroke-linejoin: miter"/>
     <use xlink:href="#m4815fe5216" x="289.556187" y="224.631992" style="fill: #ffffff; stroke: #000000; stroke-linejoin: miter"/>
     <use xlink:href="#m4815fe5216" x="330.048658" y="222.506276" style="fill: #ffffff; stroke: #000000; stroke-linejoin: miter"/>
     <use xlink:href="#m4815fe5216" x="370.541129" y="221.166143" style="fill: #ffffff; stroke: #000000; stroke-linejoin: miter"/>
     <use xlink:href="#m4815fe5216" x="411.0336" y="220.321272" style="fill: #ffffff; stroke: #000000; stroke-linejoin: miter"/>
    </g>
   </g>
   <g id="line2d_16">
    <path d="M 46.601362 310.494681 
L 87.093833 279.063165 
L 127.586304 263.02772 
L 168.078775 255.920901 
L 208.571246 253.79457 
L 249.063717 254.277755 
L 289.556187 255.981718 
L 330.048658 258.122833 
L 370.541129 260.283604 
L 411.0336 262.262258 
" clip-path="url(#pcc8c5026f0)" style="fill: none; stroke: #000000; stroke-width: 1.5; stroke-linecap: square"/>
    <defs>
     <path id="m80148401c6" d="M 0 3 
C 0.795609 3 1.55874 2.683901 2.12132 2.12132 
C 2.683901 1.55874 3 0.795609 3 0 
C 3 -0.795609 2.683901 -1.55874 2.12132 -2.12132 
C 1.55874 -2.683901 0.795609 -3 0 -3 
C -0.795609 -3 -1.55874 -2.683901 -2.12132 -2.12132 
C -2.683901 -1.55874 -3 -0.795609 -3 0 
C -3 0.795609 -2.683901 1.55874 -2.12132 2.12132 
C -1.55874 2.683901 -0.795609 3 0 3 
z
" style="stroke: #000000"/>
    </defs>
    <g clip-path="url(#pcc8c5026f0)">
     <use xlink:href="#m80148401c6" x="46.601362" y="310.494681" style="fill: #ffffff; stroke: #000000"/>
     <use xlink:href="#m80148401c6" x="87.093833" y="279.063165" style="fill: #ffffff; stroke: #000000"/>
     <use xlink:href="#m80148401c6" x="127.586304" y="263.02772" style="fill: #ffffff; stroke: #000000"/>
     <use xlink:href="#m80148401c6" x="168.078775" y="255.920901" style="fill: #ffffff; stroke: #000000"/>
     <use xlink:href="#m80148401c6" x="208.571246" y="253.79457" style="fill: #ffffff; stroke: #000000"/>
     <use xlink:href="#m80148401c6" x="249.063717" y="254.277755" style="fill: #ffffff; stroke: #000000"/>
     <use xlink:href="#m80148401c6" x="289.556187" y="255.981718" style="fill: #ffffff; stroke: #000000"/>
     <use xlink:href="#m80148401c6" x="330.048658" y="258.122833" style="fill: #ffffff; stroke: #000000"/>
     <use xlink:href="#m80148401c6" x="370.541129" y="260.283604" style="fill: #ffffff; stroke: #000000"/>
     <use xlink:href="#m80148401c6" x="411.0336" y="262.262258" style="fill: #ffffff; stroke: #000000"/>
    </g>
   </g>
   <g id="line2d_17">
    <path d="M 46.601362 310.494218 
L 87.093833 276.796512 
L 127.586304 255.901726 
L 168.078775 243.129712 
L 208.571246 235.494737 
L 249.063717 231.089937 
L 289.556187 228.697569 
L 330.048658 227.541373 
L 370.541129 227.128492 
L 411.0336 227.148073 
" clip-path="url(#pcc8c5026f0)" style="fill: none; stroke: #000000; stroke-width: 1.5; stroke-linecap: square"/>
    <defs>
     <path id="m7ed381f193" d="M 0 3 
C 0.795609 3 1.55874 2.683901 2.12132 2.12132 
C 2.683901 1.55874 3 0.795609 3 0 
C 3 -0.795609 2.683901 -1.55874 2.12132 -2.12132 
C 1.55874 -2.683901 0.795609 -3 0 -3 
C -0.795609 -3 -1.55874 -2.683901 -2.12132 -2.12132 
C -2.683901 -1.55874 -3 -0.795609 -3 0 
C -3 0.795609 -2.683901 1.55874 -2.12132 2.12132 
C -1.55874 2.683901 -0.795609 3 0 3 
z
" style="stroke: #000000"/>
    </defs>
    <g clip-path="url(#pcc8c5026f0)">
     <use xlink:href="#m7ed381f193" x="46.601362" y="310.494218" style="fill: #808080; stroke: #000000"/>
     <use xlink:href="#m7ed381f193" x="87.093833" y="276.796512" style="fill: #808080; stroke: #000000"/>
     <use xlink:href="#m7ed381f193" x="127.586304" y="255.901726" style="fill: #808080; stroke: #000000"/>
     <use xlink:href="#m7ed381f193" x="168.078775" y="243.129712" style="fill: #808080; stroke: #000000"/>
     <use xlink:href="#m7ed381f193" x="208.571246" y="235.494737" style="fill: #808080; stroke: #000000"/>
     <use xlink:href="#m7ed381f193" x="249.063717" y="231.089937" style="fill: #808080; stroke: #000000"/>
     <use xlink:href="#m7ed381f193" x="289.556187" y="228.697569" style="fill: #808080; stroke: #000000"/>
     <use xlink:href="#m7ed381f193" x="330.048658" y="227.541373" style="fill: #808080; stroke: #000000"/>
     <use xlink:href="#m7ed381f193" x="370.541129" y="227.128492" style="fill: #808080; stroke: #000000"/>
     <use xlink:href="#m7ed381f193" x="411.0336" y="227.148073" style="fill: #808080; stroke: #000000"/>
    </g>
   </g>
   <g id="line2d_18">
    <path d="M 46.601362 310.493678 
L 87.093833 274.051608 
L 127.586304 246.947407 
L 168.078775 226.456482 
L 208.571246 210.767147 
L 249.063717 198.643704 
L 289.556187 189.216688 
L 330.048658 181.854621 
L 370.541129 176.086334 
L 411.0336 171.553486 
" clip-path="url(#pcc8c5026f0)" style="fill: none; stroke: #000000; stroke-width: 1.5; stroke-linecap: square"/>
    <defs>
     <path id="md1e5af6baa" d="M 0 3 
C 0.795609 3 1.55874 2.683901 2.12132 2.12132 
C 2.683901 1.55874 3 0.795609 3 0 
C 3 -0.795609 2.683901 -1.55874 2.12132 -2.12132 
C 1.55874 -2.683901 0.795609 -3 0 -3 
C -0.795609 -3 -1.55874 -2.683901 -2.12132 -2.12132 
C -2.683901 -1.55874 -3 -0.795609 -3 0 
C -3 0.795609 -2.683901 1.55874 -2.12132 2.12132 
C -1.55874 2.683901 -0.795609 3 0 3 
z
" style="stroke: #000000"/>
    </defs>
    <g clip-path="url(#pcc8c5026f0)">
     <use xlink:href="#md1e5af6baa" x="46.601362" y="310.493678" style="stroke: #000000"/>
     <use xlink:href="#md1e5af6baa" x="87.093833" y="274.051608" style="stroke: #000000"/>
     <use xlink:href="#md1e5af6baa" x="127.586304" y="246.947407" style="stroke: #000000"/>
     <use xlink:href="#md1e5af6baa" x="168.078775" y="226.456482" style="stroke: #000000"/>
     <use xlink:href="#md1e5af6baa" x="208.571246" y="210.767147" style="stroke: #000000"/>
     <use xlink:href="#md1e5af6baa" x="249.063717" y="198.643704" style="stroke: #000000"/>
     <use xlink:href="#md1e5af6baa" x="289.556187" y="189.216688" style="stroke: #000000"/>
     <use xlink:href="#md1e5af6baa" x="330.048658" y="181.854621" style="stroke: #000000"/>
     <use xlink:href="#md1e5af6baa" x="370.541129" y="176.086334" style="stroke: #000000"/>
     <use xlink:href="#md1e5af6baa" x="411.0336" y="171.553486" style="stroke: #000000"/>
    </g>
   </g>
   <g id="patch_3">
    <path d="M 46.08 311.04 
L 46.08 34.56 
" style="fill: none; stroke: #000000; stroke-width: 0.8; stroke-linejoin: miter; stroke-linecap: square"/>
   </g>
   <g id="patch_4">
    <path d="M 414.72 311.04 
L 414.72 34.56 
" style="fill: none; stroke: #000000; stroke-width: 0.8; stroke-linejoin: miter; stroke-linecap: square"/>
   </g>
   <g id="patch_5">
    <path d="M 46.08 311.04 
L 414.72 311.04 
" style="fill: none; stroke: #000000; stroke-width: 0.8; stroke-linejoin: miter; stroke-linecap: square"/>
   </g>
   <g id="patch_6">
    <path d="M 46.08 34.56 
L 414.72 34.56 
" style="fill: none; stroke: #000000; stroke-width: 0.8; stroke-linejoin: miter; stroke-linecap: square"/>
   </g>
   <g id="legend_1">
    <g id="line2d_19">
     <path d="M 60.48 55.5175 
L 76.48 55.5175 
L 92.48 55.5175 
" style="fill: none; stroke: #000000; stroke-width: 1.5; stroke-linecap: square"/>
     <g>
      <use xlink:href="#m4815fe5216" x="76.48" y="55.5175" style="fill: #ffffff; stroke: #000000; stroke-linejoin: miter"/>
     </g>
    </g>
    <g id="text_17">
     <!-- APSIM (3 species) -->
     <g transform="translate(105.28 61.1175) scale(0.16 -0.16)">
      <defs>
       <path id="DejaVuSans-41" d="M 2188 4044 
L 1331 1722 
L 3047 1722 
L 2188 4044 
z
M 1831 4666 
L 2547 4666 
L 4325 0 
L 3669 0 
L 3244 1197 
L 1141 1197 
L 716 0 
L 50 0 
L 1831 4666 
z
" transform="scale(0.015625)"/>
       <path id="DejaVuSans-50" d="M 1259 4147 
L 1259 2394 
L 2053 2394 
Q 2494 2394 2734 2622 
Q 2975 2850 2975 3272 
Q 2975 3691 2734 3919 
Q 2494 4147 2053 4147 
L 1259 4147 
z
M 628 4666 
L 2053 4666 
Q 2838 4666 3239 4311 
Q 3641 3956 3641 3272 
Q 3641 2581 3239 2228 
Q 2838 1875 2053 1875 
L 1259 1875 
L 1259 0 
L 628 0 
L 628 4666 
z
" transform="scale(0.015625)"/>
       <path id="DejaVuSans-53" d="M 3425 4513 
L 3425 3897 
Q 3066 4069 2747 4153 
Q 2428 4238 2131 4238 
Q 1616 4238 1336 4038 
Q 1056 3838 1056 3469 
Q 1056 3159 1242 3001 
Q 1428 2844 1947 2747 
L 2328 2669 
Q 3034 2534 3370 2195 
Q 3706 1856 3706 1288 
Q 3706 609 3251 259 
Q 2797 -91 1919 -91 
Q 1588 -91 1214 -16 
Q 841 59 441 206 
L 441 856 
Q 825 641 1194 531 
Q 1563 422 1919 422 
Q 2459 422 2753 634 
Q 3047 847 3047 1241 
Q 3047 1584 2836 1778 
Q 2625 1972 2144 2069 
L 1759 2144 
Q 1053 2284 737 2584 
Q 422 2884 422 3419 
Q 422 4038 858 4394 
Q 1294 4750 2059 4750 
Q 2388 4750 2728 4690 
Q 3069 4631 3425 4513 
z
" transform="scale(0.015625)"/>
       <path id="DejaVuSans-49" d="M 628 4666 
L 1259 4666 
L 1259 0 
L 628 0 
L 628 4666 
z
" transform="scale(0.015625)"/>
       <path id="DejaVuSans-4d" d="M 628 4666 
L 1569 4666 
L 2759 1491 
L 3956 4666 
L 4897 4666 
L 4897 0 
L 4281 0 
L 4281 4097 
L 3078 897 
L 2444 897 
L 1241 4097 
L 1241 0 
L 628 0 
L 628 4666 
z
" transform="scale(0.015625)"/>
       <path id="DejaVuSans-73" d="M 2834 3397 
L 2834 2853 
Q 2591 2978 2328 3040 
Q 2066 3103 1784 3103 
Q 1356 3103 1142 2972 
Q 928 2841 928 2578 
Q 928 2378 1081 2264 
Q 1234 2150 1697 2047 
L 1894 2003 
Q 2506 1872 2764 1633 
Q 3022 1394 3022 966 
Q 3022 478 2636 193 
Q 2250 -91 1575 -91 
Q 1294 -91 989 -36 
Q 684 19 347 128 
L 347 722 
Q 666 556 975 473 
Q 1284 391 1588 391 
Q 1994 391 2212 530 
Q 2431 669 2431 922 
Q 2431 1156 2273 1281 
Q 2116 1406 1581 1522 
L 1381 1569 
Q 847 1681 609 1914 
Q 372 2147 372 2553 
Q 372 3047 722 3315 
Q 1072 3584 1716 3584 
Q 2034 3584 2315 3537 
Q 2597 3491 2834 3397 
z
" transform="scale(0.015625)"/>
      </defs>
      <use xlink:href="#DejaVuSans-41"/>
      <use xlink:href="#DejaVuSans-50" x="68.408203"/>
      <use xlink:href="#DejaVuSans-53" x="128.710938"/>
      <use xlink:href="#DejaVuSans-49" x="192.1875"/>
      <use xlink:href="#DejaVuSans-4d" x="221.679688"/>
      <use xlink:href="#DejaVuSans-20" x="307.958984"/>
      <use xlink:href="#DejaVuSans-28" x="339.746094"/>
      <use xlink:href="#DejaVuSans-33" x="378.759766"/>
      <use xlink:href="#DejaVuSans-20" x="442.382812"/>
      <use xlink:href="#DejaVuSans-73" x="474.169922"/>
      <use xlink:href="#DejaVuSans-70" x="526.269531"/>
      <use xlink:href="#DejaVuSans-65" x="589.746094"/>
      <use xlink:href="#DejaVuSans-63" x="651.269531"/>
      <use xlink:href="#DejaVuSans-69" x="706.25"/>
      <use xlink:href="#DejaVuSans-65" x="734.033203"/>
      <use xlink:href="#DejaVuSans-73" x="795.556641"/>
      <use xlink:href="#DejaVuSans-29" x="847.65625"/>
     </g>
    </g>
    <g id="line2d_20">
     <path d="M 60.48 79.005 
L 76.48 79.005 
L 92.48 79.005 
" style="fill: none; stroke: #000000; stroke-width: 1.5; stroke-linecap: square"/>
     <g>
      <use xlink:href="#m80148401c6" x="76.48" y="79.005" style="fill: #ffffff; stroke: #000000"/>
     </g>
    </g>
    <g id="text_18">
     <!-- Cycles sp 1 $h$=1 -->
     <g transform="translate(105.28 84.605) scale(0.16 -0.16)">
      <defs>
       <path id="DejaVuSans-43" d="M 4122 4306 
L 4122 3641 
Q 3803 3938 3442 4084 
Q 3081 4231 2675 4231 
Q 1875 4231 1450 3742 
Q 1025 3253 1025 2328 
Q 1025 1406 1450 917 
Q 1875 428 2675 428 
Q 3081 428 3442 575 
Q 3803 722 4122 1019 
L 4122 359 
Q 3791 134 3420 21 
Q 3050 -91 2638 -91 
Q 1578 -91 968 557 
Q 359 1206 359 2328 
Q 359 3453 968 4101 
Q 1578 4750 2638 4750 
Q 3056 4750 3426 4639 
Q 3797 4528 4122 4306 
z
" transform="scale(0.015625)"/>
       <path id="DejaVuSans-79" d="M 2059 -325 
Q 1816 -950 1584 -1140 
Q 1353 -1331 966 -1331 
L 506 -1331 
L 506 -850 
L 844 -850 
Q 1081 -850 1212 -737 
Q 1344 -625 1503 -206 
L 1606 56 
L 191 3500 
L 800 3500 
L 1894 763 
L 2988 3500 
L 3597 3500 
L 2059 -325 
z
" transform="scale(0.015625)"/>
       <path id="DejaVuSans-Oblique-68" d="M 3566 2113 
L 3156 0 
L 2578 0 
L 2988 2091 
Q 3016 2238 3031 2350 
Q 3047 2463 3047 2528 
Q 3047 2791 2881 2937 
Q 2716 3084 2419 3084 
Q 1956 3084 1617 2771 
Q 1278 2459 1178 1941 
L 800 0 
L 225 0 
L 1172 4863 
L 1747 4863 
L 1375 2950 
Q 1594 3244 1934 3414 
Q 2275 3584 2650 3584 
Q 3113 3584 3367 3334 
Q 3622 3084 3622 2631 
Q 3622 2519 3608 2391 
Q 3594 2263 3566 2113 
z
" transform="scale(0.015625)"/>
       <path id="DejaVuSans-3d" d="M 678 2906 
L 4684 2906 
L 4684 2381 
L 678 2381 
L 678 2906 
z
M 678 1631 
L 4684 1631 
L 4684 1100 
L 678 1100 
L 678 1631 
z
" transform="scale(0.015625)"/>
      </defs>
      <use xlink:href="#DejaVuSans-43" transform="translate(0 0.015625)"/>
      <use xlink:href="#DejaVuSans-79" transform="translate(69.824219 0.015625)"/>
      <use xlink:href="#DejaVuSans-63" transform="translate(129.003906 0.015625)"/>
      <use xlink:href="#DejaVuSans-6c" transform="translate(183.984375 0.015625)"/>
      <use xlink:href="#DejaVuSans-65" transform="translate(211.767578 0.015625)"/>
      <use xlink:href="#DejaVuSans-73" transform="translate(273.291016 0.015625)"/>
      <use xlink:href="#DejaVuSans-20" transform="translate(325.390625 0.015625)"/>
      <use xlink:href="#DejaVuSans-73" transform="translate(357.177734 0.015625)"/>
      <use xlink:href="#DejaVuSans-70" transform="translate(409.277344 0.015625)"/>
      <use xlink:href="#DejaVuSans-20" transform="translate(472.753906 0.015625)"/>
      <use xlink:href="#DejaVuSans-31" transform="translate(504.541016 0.015625)"/>
      <use xlink:href="#DejaVuSans-20" transform="translate(568.164062 0.015625)"/>
      <use xlink:href="#DejaVuSans-Oblique-68" transform="translate(599.951172 0.015625)"/>
      <use xlink:href="#DejaVuSans-3d" transform="translate(663.330078 0.015625)"/>
      <use xlink:href="#DejaVuSans-31" transform="translate(747.119141 0.015625)"/>
     </g>
    </g>
    <g id="line2d_21">
     <path d="M 60.48 102.525 
L 76.48 102.525 
L 92.48 102.525 
" style="fill: none; stroke: #000000; stroke-width: 1.5; stroke-linecap: square"/>
     <g>
      <use xlink:href="#m7ed381f193" x="76.48" y="102.525" style="fill: #808080; stroke: #000000"/>
     </g>
    </g>
    <g id="text_19">
     <!-- Cycles sp 2 $h$=2 -->
     <g transform="translate(105.28 108.125) scale(0.16 -0.16)">
      <use xlink:href="#DejaVuSans-43" transform="translate(0 0.015625)"/>
      <use xlink:href="#DejaVuSans-79" transform="translate(69.824219 0.015625)"/>
      <use xlink:href="#DejaVuSans-63" transform="translate(129.003906 0.015625)"/>
      <use xlink:href="#DejaVuSans-6c" transform="translate(183.984375 0.015625)"/>
      <use xlink:href="#DejaVuSans-65" transform="translate(211.767578 0.015625)"/>
      <use xlink:href="#DejaVuSans-73" transform="translate(273.291016 0.015625)"/>
      <use xlink:href="#DejaVuSans-20" transform="translate(325.390625 0.015625)"/>
      <use xlink:href="#DejaVuSans-73" transform="translate(357.177734 0.015625)"/>
      <use xlink:href="#DejaVuSans-70" transform="translate(409.277344 0.015625)"/>
      <use xlink:href="#DejaVuSans-20" transform="translate(472.753906 0.015625)"/>
      <use xlink:href="#DejaVuSans-32" transform="translate(504.541016 0.015625)"/>
      <use xlink:href="#DejaVuSans-20" transform="translate(568.164062 0.015625)"/>
      <use xlink:href="#DejaVuSans-Oblique-68" transform="translate(599.951172 0.015625)"/>
      <use xlink:href="#DejaVuSans-3d" transform="translate(663.330078 0.015625)"/>
      <use xlink:href="#DejaVuSans-32" transform="translate(747.119141 0.015625)"/>
     </g>
    </g>
    <g id="line2d_22">
     <path d="M 60.48 126.045 
L 76.48 126.045 
L 92.48 126.045 
" style="fill: none; stroke: #000000; stroke-width: 1.5; stroke-linecap: square"/>
     <g>
      <use xlink:href="#md1e5af6baa" x="76.48" y="126.045" style="stroke: #000000"/>
     </g>
    </g>
    <g id="text_20">
     <!-- Cycles sp 3 $h$=4 -->
     <g transform="translate(105.28 131.645) scale(0.16 -0.16)">
      <use xlink:href="#DejaVuSans-43" transform="translate(0 0.015625)"/>
      <use xlink:href="#DejaVuSans-79" transform="translate(69.824219 0.015625)"/>
      <use xlink:href="#DejaVuSans-63" transform="translate(129.003906 0.015625)"/>
      <use xlink:href="#DejaVuSans-6c" transform="translate(183.984375 0.015625)"/>
      <use xlink:href="#DejaVuSans-65" transform="translate(211.767578 0.015625)"/>
      <use xlink:href="#DejaVuSans-73" transform="translate(273.291016 0.015625)"/>
      <use xlink:href="#DejaVuSans-20" transform="translate(325.390625 0.015625)"/>
      <use xlink:href="#DejaVuSans-73" transform="translate(357.177734 0.015625)"/>
      <use xlink:href="#DejaVuSans-70" transform="translate(409.277344 0.015625)"/>
      <use xlink:href="#DejaVuSans-20" transform="translate(472.753906 0.015625)"/>
      <use xlink:href="#DejaVuSans-33" transform="translate(504.541016 0.015625)"/>
      <use xlink:href="#DejaVuSans-20" transform="translate(568.164062 0.015625)"/>
      <use xlink:href="#DejaVuSans-Oblique-68" transform="translate(599.951172 0.015625)"/>
      <use xlink:href="#DejaVuSans-3d" transform="translate(663.330078 0.015625)"/>
      <use xlink:href="#DejaVuSans-34" transform="translate(747.119141 0.015625)"/>
     </g>
    </g>
   </g>
  </g>
  <g id="axes_2">
   <g id="patch_7">
    <path d="M 253.44 155.52 
L 391.68 155.52 
L 391.68 51.84 
L 253.44 51.84 
z
" style="fill: #ffffff"/>
   </g>
   <g id="matplotlib.axis_3">
    <g id="xtick_9">
     <g id="line2d_23">
      <g>
       <use xlink:href="#m1dc22b72bc" x="259.543847" y="155.52" style="stroke: #000000; stroke-width: 0.8"/>
      </g>
     </g>
     <g id="text_21">
      <!-- 0 -->
      <g transform="translate(254.453847 174.6775) scale(0.16 -0.16)">
       <use xlink:href="#DejaVuSans-30"/>
      </g>
     </g>
    </g>
    <g id="xtick_10">
     <g id="line2d_24">
      <g>
       <use xlink:href="#m1dc22b72bc" x="350.346529" y="155.52" style="stroke: #000000; stroke-width: 0.8"/>
      </g>
     </g>
     <g id="text_22">
      <!-- 5 -->
      <g transform="translate(345.256529 174.6775) scale(0.16 -0.16)">
       <use xlink:href="#DejaVuSans-35"/>
      </g>
     </g>
    </g>
   </g>
   <g id="matplotlib.axis_4">
    <g id="ytick_7">
     <g id="line2d_25">
      <g>
       <use xlink:href="#m2a7276a4ec" x="253.44" y="155.52" style="stroke: #000000; stroke-width: 0.8"/>
      </g>
     </g>
     <g id="text_23">
      <!-- −0.2 -->
      <g transform="translate(207.5875 161.59875) scale(0.16 -0.16)">
       <use xlink:href="#DejaVuSans-2212"/>
       <use xlink:href="#DejaVuSans-30" x="83.789062"/>
       <use xlink:href="#DejaVuSans-2e" x="147.412109"/>
       <use xlink:href="#DejaVuSans-32" x="179.199219"/>
      </g>
     </g>
    </g>
    <g id="ytick_8">
     <g id="line2d_26">
      <g>
       <use xlink:href="#m2a7276a4ec" x="253.44" y="129.6" style="stroke: #000000; stroke-width: 0.8"/>
      </g>
     </g>
     <g id="text_24">
      <!-- −0.1 -->
      <g transform="translate(207.5875 135.67875) scale(0.16 -0.16)">
       <use xlink:href="#DejaVuSans-2212"/>
       <use xlink:href="#DejaVuSans-30" x="83.789062"/>
       <use xlink:href="#DejaVuSans-2e" x="147.412109"/>
       <use xlink:href="#DejaVuSans-31" x="179.199219"/>
      </g>
     </g>
    </g>
    <g id="ytick_9">
     <g id="line2d_27">
      <g>
       <use xlink:href="#m2a7276a4ec" x="253.44" y="103.68" style="stroke: #000000; stroke-width: 0.8"/>
      </g>
     </g>
     <g id="text_25">
      <!-- 0.0 -->
      <g transform="translate(220.995 109.75875) scale(0.16 -0.16)">
       <use xlink:href="#DejaVuSans-30"/>
       <use xlink:href="#DejaVuSans-2e" x="63.623047"/>
       <use xlink:href="#DejaVuSans-30" x="95.410156"/>
      </g>
     </g>
    </g>
    <g id="ytick_10">
     <g id="line2d_28">
      <g>
       <use xlink:href="#m2a7276a4ec" x="253.44" y="77.76" style="stroke: #000000; stroke-width: 0.8"/>
      </g>
     </g>
     <g id="text_26">
      <!-- 0.1 -->
      <g transform="translate(220.995 83.83875) scale(0.16 -0.16)">
       <use xlink:href="#DejaVuSans-30"/>
       <use xlink:href="#DejaVuSans-2e" x="63.623047"/>
       <use xlink:href="#DejaVuSans-31" x="95.410156"/>
      </g>
     </g>
    </g>
    <g id="ytick_11">
     <g id="line2d_29">
      <g>
       <use xlink:href="#m2a7276a4ec" x="253.44" y="51.84" style="stroke: #000000; stroke-width: 0.8"/>
      </g>
     </g>
     <g id="text_27">
      <!-- 0.2 -->
      <g transform="translate(220.995 57.91875) scale(0.16 -0.16)">
       <use xlink:href="#DejaVuSans-30"/>
       <use xlink:href="#DejaVuSans-2e" x="63.623047"/>
       <use xlink:href="#DejaVuSans-32" x="95.410156"/>
      </g>
     </g>
    </g>
    <g id="text_28">
     <!-- Difference -->
     <g transform="translate(195.844063 150.21) rotate(-90) scale(0.18 -0.18)">
      <defs>
       <path id="DejaVuSans-44" d="M 1259 4147 
L 1259 519 
L 2022 519 
Q 2988 519 3436 956 
Q 3884 1394 3884 2338 
Q 3884 3275 3436 3711 
Q 2988 4147 2022 4147 
L 1259 4147 
z
M 628 4666 
L 1925 4666 
Q 3281 4666 3915 4102 
Q 4550 3538 4550 2338 
Q 4550 1131 3912 565 
Q 3275 0 1925 0 
L 628 0 
L 628 4666 
z
" transform="scale(0.015625)"/>
      </defs>
      <use xlink:href="#DejaVuSans-44"/>
      <use xlink:href="#DejaVuSans-69" x="77.001953"/>
      <use xlink:href="#DejaVuSans-66" x="104.785156"/>
      <use xlink:href="#DejaVuSans-66" x="139.990234"/>
      <use xlink:href="#DejaVuSans-65" x="175.195312"/>
      <use xlink:href="#DejaVuSans-72" x="236.71875"/>
      <use xlink:href="#DejaVuSans-65" x="275.582031"/>
      <use xlink:href="#DejaVuSans-6e" x="337.105469"/>
      <use xlink:href="#DejaVuSans-63" x="400.484375"/>
      <use xlink:href="#DejaVuSans-65" x="455.464844"/>
     </g>
    </g>
   </g>
   <g id="line2d_30">
    <path d="M 259.723636 103.68 
L 273.687273 103.68 
L 287.650909 103.68 
L 301.614545 103.68 
L 315.578182 103.68 
L 329.541818 103.68 
L 343.505455 103.68 
L 357.469091 103.68 
L 371.432727 103.68 
L 385.396364 103.68 
" clip-path="url(#p8876c56099)" style="fill: none; stroke: #000000; stroke-width: 1.5; stroke-linecap: square"/>
    <g clip-path="url(#p8876c56099)">
     <use xlink:href="#m4815fe5216" x="259.723636" y="103.68" style="fill: #ffffff; stroke: #000000; stroke-linejoin: miter"/>
     <use xlink:href="#m4815fe5216" x="273.687273" y="103.68" style="fill: #ffffff; stroke: #000000; stroke-linejoin: miter"/>
     <use xlink:href="#m4815fe5216" x="287.650909" y="103.68" style="fill: #ffffff; stroke: #000000; stroke-linejoin: miter"/>
     <use xlink:href="#m4815fe5216" x="301.614545" y="103.68" style="fill: #ffffff; stroke: #000000; stroke-linejoin: miter"/>
     <use xlink:href="#m4815fe5216" x="315.578182" y="103.68" style="fill: #ffffff; stroke: #000000; stroke-linejoin: miter"/>
     <use xlink:href="#m4815fe5216" x="329.541818" y="103.68" style="fill: #ffffff; stroke: #000000; stroke-linejoin: miter"/>
     <use xlink:href="#m4815fe5216" x="343.505455" y="103.68" style="fill: #ffffff; stroke: #000000; stroke-linejoin: miter"/>
     <use xlink:href="#m4815fe5216" x="357.469091" y="103.68" style="fill: #ffffff; stroke: #000000; stroke-linejoin: miter"/>
     <use xlink:href="#m4815fe5216" x="371.432727" y="103.68" style="fill: #ffffff; stroke: #000000; stroke-linejoin: miter"/>
     <use xlink:href="#m4815fe5216" x="385.396364" y="103.68" style="fill: #ffffff; stroke: #000000; stroke-linejoin: miter"/>
    </g>
   </g>
   <g id="line2d_31">
    <path d="M 259.723636 103.680458 
L 273.687273 105.95444 
L 287.650909 110.931971 
L 301.614545 116.884877 
L 315.578182 122.844768 
L 329.541818 128.311834 
L 343.505455 133.070368 
L 357.469091 137.070523 
L 371.432727 140.352619 
L 385.396364 142.999674 
" clip-path="url(#p8876c56099)" style="fill: none; stroke: #000000; stroke-width: 1.5; stroke-linecap: square"/>
    <g clip-path="url(#p8876c56099)">
     <use xlink:href="#m80148401c6" x="259.723636" y="103.680458" style="fill: #ffffff; stroke: #000000"/>
     <use xlink:href="#m80148401c6" x="273.687273" y="105.95444" style="fill: #ffffff; stroke: #000000"/>
     <use xlink:href="#m80148401c6" x="287.650909" y="110.931971" style="fill: #ffffff; stroke: #000000"/>
     <use xlink:href="#m80148401c6" x="301.614545" y="116.884877" style="fill: #ffffff; stroke: #000000"/>
     <use xlink:href="#m80148401c6" x="315.578182" y="122.844768" style="fill: #ffffff; stroke: #000000"/>
     <use xlink:href="#m80148401c6" x="329.541818" y="128.311834" style="fill: #ffffff; stroke: #000000"/>
     <use xlink:href="#m80148401c6" x="343.505455" y="133.070368" style="fill: #ffffff; stroke: #000000"/>
     <use xlink:href="#m80148401c6" x="357.469091" y="137.070523" style="fill: #ffffff; stroke: #000000"/>
     <use xlink:href="#m80148401c6" x="371.432727" y="140.352619" style="fill: #ffffff; stroke: #000000"/>
     <use xlink:href="#m80148401c6" x="385.396364" y="142.999674" style="fill: #ffffff; stroke: #000000"/>
    </g>
   </g>
   <g id="line2d_32">
    <path d="M 259.723636 103.680024 
L 273.687273 103.829454 
L 287.650909 104.251352 
L 301.614545 104.893138 
L 315.578182 105.688674 
L 329.541818 106.573255 
L 343.505455 107.491479 
L 357.469091 108.400404 
L 371.432727 109.269702 
L 385.396364 110.080126 
" clip-path="url(#p8876c56099)" style="fill: none; stroke: #000000; stroke-width: 1.5; stroke-linecap: square"/>
    <g clip-path="url(#p8876c56099)">
     <use xlink:href="#m7ed381f193" x="259.723636" y="103.680024" style="fill: #808080; stroke: #000000"/>
     <use xlink:href="#m7ed381f193" x="273.687273" y="103.829454" style="fill: #808080; stroke: #000000"/>
     <use xlink:href="#m7ed381f193" x="287.650909" y="104.251352" style="fill: #808080; stroke: #000000"/>
     <use xlink:href="#m7ed381f193" x="301.614545" y="104.893138" style="fill: #808080; stroke: #000000"/>
     <use xlink:href="#m7ed381f193" x="315.578182" y="105.688674" style="fill: #808080; stroke: #000000"/>
     <use xlink:href="#m7ed381f193" x="329.541818" y="106.573255" style="fill: #808080; stroke: #000000"/>
     <use xlink:href="#m7ed381f193" x="343.505455" y="107.491479" style="fill: #808080; stroke: #000000"/>
     <use xlink:href="#m7ed381f193" x="357.469091" y="108.400404" style="fill: #808080; stroke: #000000"/>
     <use xlink:href="#m7ed381f193" x="371.432727" y="109.269702" style="fill: #808080; stroke: #000000"/>
     <use xlink:href="#m7ed381f193" x="385.396364" y="110.080126" style="fill: #808080; stroke: #000000"/>
    </g>
   </g>
   <g id="line2d_33">
    <path d="M 259.723636 103.679517 
L 273.687273 101.256106 
L 287.650909 95.856677 
L 301.614545 89.261984 
L 315.578182 82.506558 
L 329.541818 76.154911 
L 343.505455 70.478153 
L 357.469091 65.569073 
L 371.432727 61.417679 
L 385.396364 57.9602 
" clip-path="url(#p8876c56099)" style="fill: none; stroke: #000000; stroke-width: 1.5; stroke-linecap: square"/>
    <g clip-path="url(#p8876c56099)">
     <use xlink:href="#md1e5af6baa" x="259.723636" y="103.679517" style="stroke: #000000"/>
     <use xlink:href="#md1e5af6baa" x="273.687273" y="101.256106" style="stroke: #000000"/>
     <use xlink:href="#md1e5af6baa" x="287.650909" y="95.856677" style="stroke: #000000"/>
     <use xlink:href="#md1e5af6baa" x="301.614545" y="89.261984" style="stroke: #000000"/>
     <use xlink:href="#md1e5af6baa" x="315.578182" y="82.506558" style="stroke: #000000"/>
     <use xlink:href="#md1e5af6baa" x="329.541818" y="76.154911" style="stroke: #000000"/>
     <use xlink:href="#md1e5af6baa" x="343.505455" y="70.478153" style="stroke: #000000"/>
     <use xlink:href="#md1e5af6baa" x="357.469091" y="65.569073" style="stroke: #000000"/>
     <use xlink:href="#md1e5af6baa" x="371.432727" y="61.417679" style="stroke: #000000"/>
     <use xlink:href="#md1e5af6baa" x="385.396364" y="57.9602" style="stroke: #000000"/>
    </g>
   </g>
   <g id="patch_8">
    <path d="M 253.44 155.52 
L 253.44 51.84 
" style="fill: none; stroke: #000000; stroke-width: 0.8; stroke-linejoin: miter; stroke-linecap: square"/>
   </g>
   <g id="patch_9">
    <path d="M 391.68 155.52 
L 391.68 51.84 
" style="fill: none; stroke: #000000; stroke-width: 0.8; stroke-linejoin: miter; stroke-linecap: square"/>
   </g>
   <g id="patch_10">
    <path d="M 253.44 155.52 
L 391.68 155.52 
" style="fill: none; stroke: #000000; stroke-width: 0.8; stroke-linejoin: miter; stroke-linecap: square"/>
   </g>
   <g id="patch_11">
    <path d="M 253.44 51.84 
L 391.68 51.84 
" style="fill: none; stroke: #000000; stroke-width: 0.8; stroke-linejoin: miter; stroke-linecap: square"/>
   </g>
  </g>
 </g>
 <defs>
  <clipPath id="pcc8c5026f0">
   <rect x="46.08" y="34.56" width="368.64" height="276.48"/>
  </clipPath>
  <clipPath id="p8876c56099">
   <rect x="253.44" y="51.84" width="138.24" height="103.68"/>
  </clipPath>
 </defs>
</svg>
