<?xml version="1.0" encoding="utf-8" standalone="no"?>
<!DOCTYPE svg PUBLIC "-//W3C//DTD SVG 1.1//EN"
  "http://www.w3.org/Graphics/SVG/1.1/DTD/svg11.dtd">
<svg xmlns:xlink="http://www.w3.org/1999/xlink" width="460.8pt" height="345.6pt" viewBox="0 0 460.8 345.6" xmlns="http://www.w3.org/2000/svg" version="1.1">
 <metadata>
  <rdf:RDF xmlns:dc="http://purl.org/dc/elements/1.1/" xmlns:cc="http://creativecommons.org/ns#" xmlns:rdf="http://www.w3.org/1999/02/22-rdf-syntax-ns#">
   <cc:Work>
    <dc:type rdf:resource="http://purl.org/dc/dcmitype/StillImage"/>
    <dc:date>2024-04-30T15:28:51.450537</dc:date>
    <dc:format>image/svg+xml</dc:format>
    <dc:creator>
     <cc:Agent>
      <dc:title>Matplotlib v3.8.4, https://matplotlib.org/</dc:title>
     </cc:Agent>
    </dc:creator>
   </cc:Work>
  </rdf:RDF>
 </metadata>
 <defs>
  <style type="text/css">*{stroke-linejoin: round; stroke-linecap: butt}</style>
 </defs>
 <g id="figure_1">
  <g id="patch_1">
   <path d="M 0 345.6 
L 460.8 345.6 
L 460.8 0 
L 0 0 
z
" style="fill: #ffffff"/>
  </g>
  <g id="axes_1">
   <g id="patch_2">
    <path d="M 57.6 307.584 
L 414.72 307.584 
L 414.72 41.472 
L 57.6 41.472 
z
" style="fill: #ffffff"/>
   </g>
   <g id="matplotlib.axis_1">
    <g id="xtick_1">
     <g id="line2d_1">
      <defs>
       <path id="mab53e508e4" d="M 0 0 
L 0 3.5 
" style="stroke: #000000; stroke-width: 0.8"/>
      </defs>
      <g>
       <use xlink:href="#mab53e508e4" x="57.6" y="307.584" style="stroke: #000000; stroke-width: 0.8"/>
      </g>
     </g>
     <g id="text_1">
      <!-- 0 -->
      <g transform="translate(52.51 326.7415) scale(0.16 -0.16)">
       <defs>
        <path id="DejaVuSans-30" d="M 2034 4250 
Q 1547 4250 1301 3770 
Q 1056 3291 1056 2328 
Q 1056 1369 1301 889 
Q 1547 409 2034 409 
Q 2525 409 2770 889 
Q 3016 1369 3016 2328 
Q 3016 3291 2770 3770 
Q 2525 4250 2034 4250 
z
M 2034 4750 
Q 2819 4750 3233 4129 
Q 3647 3509 3647 2328 
Q 3647 1150 3233 529 
Q 2819 -91 2034 -91 
Q 1250 -91 836 529 
Q 422 1150 422 2328 
Q 422 3509 836 4129 
Q 1250 4750 2034 4750 
z
" transform="scale(0.015625)"/>
       </defs>
       <use xlink:href="#DejaVuSans-30"/>
      </g>
     </g>
    </g>
    <g id="xtick_2">
     <g id="line2d_2">
      <g>
       <use xlink:href="#mab53e508e4" x="108.617143" y="307.584" style="stroke: #000000; stroke-width: 0.8"/>
      </g>
     </g>
     <g id="text_2">
      <!-- 1 -->
      <g transform="translate(103.527143 326.7415) scale(0.16 -0.16)">
       <defs>
        <path id="DejaVuSans-31" d="M 794 531 
L 1825 531 
L 1825 4091 
L 703 3866 
L 703 4441 
L 1819 4666 
L 2450 4666 
L 2450 531 
L 3481 531 
L 3481 0 
L 794 0 
L 794 531 
z
" transform="scale(0.015625)"/>
       </defs>
       <use xlink:href="#DejaVuSans-31"/>
      </g>
     </g>
    </g>
    <g id="xtick_3">
     <g id="line2d_3">
      <g>
       <use xlink:href="#mab53e508e4" x="159.634286" y="307.584" style="stroke: #000000; stroke-width: 0.8"/>
      </g>
     </g>
     <g id="text_3">
      <!-- 2 -->
      <g transform="translate(154.544286 326.7415) scale(0.16 -0.16)">
       <defs>
        <path id="DejaVuSans-32" d="M 1228 531 
L 3431 531 
L 3431 0 
L 469 0 
L 469 531 
Q 828 903 1448 1529 
Q 2069 2156 2228 2338 
Q 2531 2678 2651 2914 
Q 2772 3150 2772 3378 
Q 2772 3750 2511 3984 
Q 2250 4219 1831 4219 
Q 1534 4219 1204 4116 
Q 875 4013 500 3803 
L 500 4441 
Q 881 4594 1212 4672 
Q 1544 4750 1819 4750 
Q 2544 4750 2975 4387 
Q 3406 4025 3406 3419 
Q 3406 3131 3298 2873 
Q 3191 2616 2906 2266 
Q 2828 2175 2409 1742 
Q 1991 1309 1228 531 
z
" transform="scale(0.015625)"/>
       </defs>
       <use xlink:href="#DejaVuSans-32"/>
      </g>
     </g>
    </g>
    <g id="xtick_4">
     <g id="line2d_4">
      <g>
       <use xlink:href="#mab53e508e4" x="210.651429" y="307.584" style="stroke: #000000; stroke-width: 0.8"/>
      </g>
     </g>
     <g id="text_4">
      <!-- 3 -->
      <g transform="translate(205.561429 326.7415) scale(0.16 -0.16)">
       <defs>
        <path id="DejaVuSans-33" d="M 2597 2516 
Q 3050 2419 3304 2112 
Q 3559 1806 3559 1356 
Q 3559 666 3084 287 
Q 2609 -91 1734 -91 
Q 1441 -91 1130 -33 
Q 819 25 488 141 
L 488 750 
Q 750 597 1062 519 
Q 1375 441 1716 441 
Q 2309 441 2620 675 
Q 2931 909 2931 1356 
Q 2931 1769 2642 2001 
Q 2353 2234 1838 2234 
L 1294 2234 
L 1294 2753 
L 1863 2753 
Q 2328 2753 2575 2939 
Q 2822 3125 2822 3475 
Q 2822 3834 2567 4026 
Q 2313 4219 1838 4219 
Q 1578 4219 1281 4162 
Q 984 4106 628 3988 
L 628 4550 
Q 988 4650 1302 4700 
Q 1616 4750 1894 4750 
Q 2613 4750 3031 4423 
Q 3450 4097 3450 3541 
Q 3450 3153 3228 2886 
Q 3006 2619 2597 2516 
z
" transform="scale(0.015625)"/>
       </defs>
       <use xlink:href="#DejaVuSans-33"/>
      </g>
     </g>
    </g>
    <g id="xtick_5">
     <g id="line2d_5">
      <g>
       <use xlink:href="#mab53e508e4" x="261.668571" y="307.584" style="stroke: #000000; stroke-width: 0.8"/>
      </g>
     </g>
     <g id="text_5">
      <!-- 4 -->
      <g transform="translate(256.578571 326.7415) scale(0.16 -0.16)">
       <defs>
        <path id="DejaVuSans-34" d="M 2419 4116 
L 825 1625 
L 2419 1625 
L 2419 4116 
z
M 2253 4666 
L 3047 4666 
L 3047 1625 
L 3713 1625 
L 3713 1100 
L 3047 1100 
L 3047 0 
L 2419 0 
L 2419 1100 
L 313 1100 
L 313 1709 
L 2253 4666 
z
" transform="scale(0.015625)"/>
       </defs>
       <use xlink:href="#DejaVuSans-34"/>
      </g>
     </g>
    </g>
    <g id="xtick_6">
     <g id="line2d_6">
      <g>
       <use xlink:href="#mab53e508e4" x="312.685714" y="307.584" style="stroke: #000000; stroke-width: 0.8"/>
      </g>
     </g>
     <g id="text_6">
      <!-- 5 -->
      <g transform="translate(307.595714 326.7415) scale(0.16 -0.16)">
       <defs>
        <path id="DejaVuSans-35" d="M 691 4666 
L 3169 4666 
L 3169 4134 
L 1269 4134 
L 1269 2991 
Q 1406 3038 1543 3061 
Q 1681 3084 1819 3084 
Q 2600 3084 3056 2656 
Q 3513 2228 3513 1497 
Q 3513 744 3044 326 
Q 2575 -91 1722 -91 
Q 1428 -91 1123 -41 
Q 819 9 494 109 
L 494 744 
Q 775 591 1075 516 
Q 1375 441 1709 441 
Q 2250 441 2565 725 
Q 2881 1009 2881 1497 
Q 2881 1984 2565 2268 
Q 2250 2553 1709 2553 
Q 1456 2553 1204 2497 
Q 953 2441 691 2322 
L 691 4666 
z
" transform="scale(0.015625)"/>
       </defs>
       <use xlink:href="#DejaVuSans-35"/>
      </g>
     </g>
    </g>
    <g id="xtick_7">
     <g id="line2d_7">
      <g>
       <use xlink:href="#mab53e508e4" x="363.702857" y="307.584" style="stroke: #000000; stroke-width: 0.8"/>
      </g>
     </g>
     <g id="text_7">
      <!-- 6 -->
      <g transform="translate(358.612857 326.7415) scale(0.16 -0.16)">
       <defs>
        <path id="DejaVuSans-36" d="M 2113 2584 
Q 1688 2584 1439 2293 
Q 1191 2003 1191 1497 
Q 1191 994 1439 701 
Q 1688 409 2113 409 
Q 2538 409 2786 701 
Q 3034 994 3034 1497 
Q 3034 2003 2786 2293 
Q 2538 2584 2113 2584 
z
M 3366 4563 
L 3366 3988 
Q 3128 4100 2886 4159 
Q 2644 4219 2406 4219 
Q 1781 4219 1451 3797 
Q 1122 3375 1075 2522 
Q 1259 2794 1537 2939 
Q 1816 3084 2150 3084 
Q 2853 3084 3261 2657 
Q 3669 2231 3669 1497 
Q 3669 778 3244 343 
Q 2819 -91 2113 -91 
Q 1303 -91 875 529 
Q 447 1150 447 2328 
Q 447 3434 972 4092 
Q 1497 4750 2381 4750 
Q 2619 4750 2861 4703 
Q 3103 4656 3366 4563 
z
" transform="scale(0.015625)"/>
       </defs>
       <use xlink:href="#DejaVuSans-36"/>
      </g>
     </g>
    </g>
    <g id="xtick_8">
     <g id="line2d_8">
      <g>
       <use xlink:href="#mab53e508e4" x="414.72" y="307.584" style="stroke: #000000; stroke-width: 0.8"/>
      </g>
     </g>
     <g id="text_8">
      <!-- 7 -->
      <g transform="translate(409.63 326.7415) scale(0.16 -0.16)">
       <defs>
        <path id="DejaVuSans-37" d="M 525 4666 
L 3525 4666 
L 3525 4397 
L 1831 0 
L 1172 0 
L 2766 4134 
L 525 4134 
L 525 4666 
z
" transform="scale(0.015625)"/>
       </defs>
       <use xlink:href="#DejaVuSans-37"/>
      </g>
     </g>
    </g>
    <g id="text_9">
     <!-- Total leaf area index (m$^2$ m$^{-2}$) -->
     <g transform="translate(99 353.225562) scale(0.18 -0.18)">
      <defs>
       <path id="DejaVuSans-54" d="M -19 4666 
L 3928 4666 
L 3928 4134 
L 2272 4134 
L 2272 0 
L 1638 0 
L 1638 4134 
L -19 4134 
L -19 4666 
z
" transform="scale(0.015625)"/>
       <path id="DejaVuSans-6f" d="M 1959 3097 
Q 1497 3097 1228 2736 
Q 959 2375 959 1747 
Q 959 1119 1226 758 
Q 1494 397 1959 397 
Q 2419 397 2687 759 
Q 2956 1122 2956 1747 
Q 2956 2369 2687 2733 
Q 2419 3097 1959 3097 
z
M 1959 3584 
Q 2709 3584 3137 3096 
Q 3566 2609 3566 1747 
Q 3566 888 3137 398 
Q 2709 -91 1959 -91 
Q 1206 -91 779 398 
Q 353 888 353 1747 
Q 353 2609 779 3096 
Q 1206 3584 1959 3584 
z
" transform="scale(0.015625)"/>
       <path id="DejaVuSans-74" d="M 1172 4494 
L 1172 3500 
L 2356 3500 
L 2356 3053 
L 1172 3053 
L 1172 1153 
Q 1172 725 1289 603 
Q 1406 481 1766 481 
L 2356 481 
L 2356 0 
L 1766 0 
Q 1100 0 847 248 
Q 594 497 594 1153 
L 594 3053 
L 172 3053 
L 172 3500 
L 594 3500 
L 594 4494 
L 1172 4494 
z
" transform="scale(0.015625)"/>
       <path id="DejaVuSans-61" d="M 2194 1759 
Q 1497 1759 1228 1600 
Q 959 1441 959 1056 
Q 959 750 1161 570 
Q 1363 391 1709 391 
Q 2188 391 2477 730 
Q 2766 1069 2766 1631 
L 2766 1759 
L 2194 1759 
z
M 3341 1997 
L 3341 0 
L 2766 0 
L 2766 531 
Q 2569 213 2275 61 
Q 1981 -91 1556 -91 
Q 1019 -91 701 211 
Q 384 513 384 1019 
Q 384 1609 779 1909 
Q 1175 2209 1959 2209 
L 2766 2209 
L 2766 2266 
Q 2766 2663 2505 2880 
Q 2244 3097 1772 3097 
Q 1472 3097 1187 3025 
Q 903 2953 641 2809 
L 641 3341 
Q 956 3463 1253 3523 
Q 1550 3584 1831 3584 
Q 2591 3584 2966 3190 
Q 3341 2797 3341 1997 
z
" transform="scale(0.015625)"/>
       <path id="DejaVuSans-6c" d="M 603 4863 
L 1178 4863 
L 1178 0 
L 603 0 
L 603 4863 
z
" transform="scale(0.015625)"/>
       <path id="DejaVuSans-20" transform="scale(0.015625)"/>
       <path id="DejaVuSans-65" d="M 3597 1894 
L 3597 1613 
L 953 1613 
Q 991 1019 1311 708 
Q 1631 397 2203 397 
Q 2534 397 2845 478 
Q 3156 559 3463 722 
L 3463 178 
Q 3153 47 2828 -22 
Q 2503 -91 2169 -91 
Q 1331 -91 842 396 
Q 353 884 353 1716 
Q 353 2575 817 3079 
Q 1281 3584 2069 3584 
Q 2775 3584 3186 3129 
Q 3597 2675 3597 1894 
z
M 3022 2063 
Q 3016 2534 2758 2815 
Q 2500 3097 2075 3097 
Q 1594 3097 1305 2825 
Q 1016 2553 972 2059 
L 3022 2063 
z
" transform="scale(0.015625)"/>
       <path id="DejaVuSans-66" d="M 2375 4863 
L 2375 4384 
L 1825 4384 
Q 1516 4384 1395 4259 
Q 1275 4134 1275 3809 
L 1275 3500 
L 2222 3500 
L 2222 3053 
L 1275 3053 
L 1275 0 
L 697 0 
L 697 3053 
L 147 3053 
L 147 3500 
L 697 3500 
L 697 3744 
Q 697 4328 969 4595 
Q 1241 4863 1831 4863 
L 2375 4863 
z
" transform="scale(0.015625)"/>
       <path id="DejaVuSans-72" d="M 2631 2963 
Q 2534 3019 2420 3045 
Q 2306 3072 2169 3072 
Q 1681 3072 1420 2755 
Q 1159 2438 1159 1844 
L 1159 0 
L 581 0 
L 581 3500 
L 1159 3500 
L 1159 2956 
Q 1341 3275 1631 3429 
Q 1922 3584 2338 3584 
Q 2397 3584 2469 3576 
Q 2541 3569 2628 3553 
L 2631 2963 
z
" transform="scale(0.015625)"/>
       <path id="DejaVuSans-69" d="M 603 3500 
L 1178 3500 
L 1178 0 
L 603 0 
L 603 3500 
z
M 603 4863 
L 1178 4863 
L 1178 4134 
L 603 4134 
L 603 4863 
z
" transform="scale(0.015625)"/>
       <path id="DejaVuSans-6e" d="M 3513 2113 
L 3513 0 
L 2938 0 
L 2938 2094 
Q 2938 2591 2744 2837 
Q 2550 3084 2163 3084 
Q 1697 3084 1428 2787 
Q 1159 2491 1159 1978 
L 1159 0 
L 581 0 
L 581 3500 
L 1159 3500 
L 1159 2956 
Q 1366 3272 1645 3428 
Q 1925 3584 2291 3584 
Q 2894 3584 3203 3211 
Q 3513 2838 3513 2113 
z
" transform="scale(0.015625)"/>
       <path id="DejaVuSans-64" d="M 2906 2969 
L 2906 4863 
L 3481 4863 
L 3481 0 
L 2906 0 
L 2906 525 
Q 2725 213 2448 61 
Q 2172 -91 1784 -91 
Q 1150 -91 751 415 
Q 353 922 353 1747 
Q 353 2572 751 3078 
Q 1150 3584 1784 3584 
Q 2172 3584 2448 3432 
Q 2725 3281 2906 2969 
z
M 947 1747 
Q 947 1113 1208 752 
Q 1469 391 1925 391 
Q 2381 391 2643 752 
Q 2906 1113 2906 1747 
Q 2906 2381 2643 2742 
Q 2381 3103 1925 3103 
Q 1469 3103 1208 2742 
Q 947 2381 947 1747 
z
" transform="scale(0.015625)"/>
       <path id="DejaVuSans-78" d="M 3513 3500 
L 2247 1797 
L 3578 0 
L 2900 0 
L 1881 1375 
L 863 0 
L 184 0 
L 1544 1831 
L 300 3500 
L 978 3500 
L 1906 2253 
L 2834 3500 
L 3513 3500 
z
" transform="scale(0.015625)"/>
       <path id="DejaVuSans-28" d="M 1984 4856 
Q 1566 4138 1362 3434 
Q 1159 2731 1159 2009 
Q 1159 1288 1364 580 
Q 1569 -128 1984 -844 
L 1484 -844 
Q 1016 -109 783 600 
Q 550 1309 550 2009 
Q 550 2706 781 3412 
Q 1013 4119 1484 4856 
L 1984 4856 
z
" transform="scale(0.015625)"/>
       <path id="DejaVuSans-6d" d="M 3328 2828 
Q 3544 3216 3844 3400 
Q 4144 3584 4550 3584 
Q 5097 3584 5394 3201 
Q 5691 2819 5691 2113 
L 5691 0 
L 5113 0 
L 5113 2094 
Q 5113 2597 4934 2840 
Q 4756 3084 4391 3084 
Q 3944 3084 3684 2787 
Q 3425 2491 3425 1978 
L 3425 0 
L 2847 0 
L 2847 2094 
Q 2847 2600 2669 2842 
Q 2491 3084 2119 3084 
Q 1678 3084 1418 2786 
Q 1159 2488 1159 1978 
L 1159 0 
L 581 0 
L 581 3500 
L 1159 3500 
L 1159 2956 
Q 1356 3278 1631 3431 
Q 1906 3584 2284 3584 
Q 2666 3584 2933 3390 
Q 3200 3197 3328 2828 
z
" transform="scale(0.015625)"/>
       <path id="DejaVuSans-2212" d="M 678 2272 
L 4684 2272 
L 4684 1741 
L 678 1741 
L 678 2272 
z
" transform="scale(0.015625)"/>
       <path id="DejaVuSans-29" d="M 513 4856 
L 1013 4856 
Q 1481 4119 1714 3412 
Q 1947 2706 1947 2009 
Q 1947 1309 1714 600 
Q 1481 -109 1013 -844 
L 513 -844 
Q 928 -128 1133 580 
Q 1338 1288 1338 2009 
Q 1338 2731 1133 3434 
Q 928 4138 513 4856 
z
" transform="scale(0.015625)"/>
      </defs>
      <use xlink:href="#DejaVuSans-54" transform="translate(0 0.765625)"/>
      <use xlink:href="#DejaVuSans-6f" transform="translate(61.083984 0.765625)"/>
      <use xlink:href="#DejaVuSans-74" transform="translate(122.265625 0.765625)"/>
      <use xlink:href="#DejaVuSans-61" transform="translate(161.474609 0.765625)"/>
      <use xlink:href="#DejaVuSans-6c" transform="translate(222.753906 0.765625)"/>
      <use xlink:href="#DejaVuSans-20" transform="translate(250.537109 0.765625)"/>
      <use xlink:href="#DejaVuSans-6c" transform="translate(282.324219 0.765625)"/>
      <use xlink:href="#DejaVuSans-65" transform="translate(310.107422 0.765625)"/>
      <use xlink:href="#DejaVuSans-61" transform="translate(371.630859 0.765625)"/>
      <use xlink:href="#DejaVuSans-66" transform="translate(432.910156 0.765625)"/>
      <use xlink:href="#DejaVuSans-20" transform="translate(468.115234 0.765625)"/>
      <use xlink:href="#DejaVuSans-61" transform="translate(499.902344 0.765625)"/>
      <use xlink:href="#DejaVuSans-72" transform="translate(561.181641 0.765625)"/>
      <use xlink:href="#DejaVuSans-65" transform="translate(602.294922 0.765625)"/>
      <use xlink:href="#DejaVuSans-61" transform="translate(663.818359 0.765625)"/>
      <use xlink:href="#DejaVuSans-20" transform="translate(725.097656 0.765625)"/>
      <use xlink:href="#DejaVuSans-69" transform="translate(756.884766 0.765625)"/>
      <use xlink:href="#DejaVuSans-6e" transform="translate(784.667969 0.765625)"/>
      <use xlink:href="#DejaVuSans-64" transform="translate(848.046875 0.765625)"/>
      <use xlink:href="#DejaVuSans-65" transform="translate(911.523438 0.765625)"/>
      <use xlink:href="#DejaVuSans-78" transform="translate(973.046875 0.765625)"/>
      <use xlink:href="#DejaVuSans-20" transform="translate(1032.226562 0.765625)"/>
      <use xlink:href="#DejaVuSans-28" transform="translate(1064.013672 0.765625)"/>
      <use xlink:href="#DejaVuSans-6d" transform="translate(1103.027344 0.765625)"/>
      <use xlink:href="#DejaVuSans-32" transform="translate(1201.396484 39.046875) scale(0.7)"/>
      <use xlink:href="#DejaVuSans-20" transform="translate(1248.666992 0.765625)"/>
      <use xlink:href="#DejaVuSans-6d" transform="translate(1280.454102 0.765625)"/>
      <use xlink:href="#DejaVuSans-2212" transform="translate(1378.823242 39.046875) scale(0.7)"/>
      <use xlink:href="#DejaVuSans-32" transform="translate(1437.475586 39.046875) scale(0.7)"/>
      <use xlink:href="#DejaVuSans-29" transform="translate(1484.746094 0.765625)"/>
     </g>
    </g>
   </g>
   <g id="matplotlib.axis_2">
    <g id="ytick_1">
     <g id="line2d_9">
      <defs>
       <path id="m4017898807" d="M 0 0 
L -3.5 0 
" style="stroke: #000000; stroke-width: 0.8"/>
      </defs>
      <g>
       <use xlink:href="#m4017898807" x="57.6" y="307.584" style="stroke: #000000; stroke-width: 0.8"/>
      </g>
     </g>
     <g id="text_10">
      <!-- 0.0 -->
      <g transform="translate(25.155 313.66275) scale(0.16 -0.16)">
       <defs>
        <path id="DejaVuSans-2e" d="M 684 794 
L 1344 794 
L 1344 0 
L 684 0 
L 684 794 
z
" transform="scale(0.015625)"/>
       </defs>
       <use xlink:href="#DejaVuSans-30"/>
       <use xlink:href="#DejaVuSans-2e" x="63.623047"/>
       <use xlink:href="#DejaVuSans-30" x="95.410156"/>
      </g>
     </g>
    </g>
    <g id="ytick_2">
     <g id="line2d_10">
      <g>
       <use xlink:href="#m4017898807" x="57.6" y="254.3616" style="stroke: #000000; stroke-width: 0.8"/>
      </g>
     </g>
     <g id="text_11">
      <!-- 0.2 -->
      <g transform="translate(25.155 260.44035) scale(0.16 -0.16)">
       <use xlink:href="#DejaVuSans-30"/>
       <use xlink:href="#DejaVuSans-2e" x="63.623047"/>
       <use xlink:href="#DejaVuSans-32" x="95.410156"/>
      </g>
     </g>
    </g>
    <g id="ytick_3">
     <g id="line2d_11">
      <g>
       <use xlink:href="#m4017898807" x="57.6" y="201.1392" style="stroke: #000000; stroke-width: 0.8"/>
      </g>
     </g>
     <g id="text_12">
      <!-- 0.4 -->
      <g transform="translate(25.155 207.21795) scale(0.16 -0.16)">
       <use xlink:href="#DejaVuSans-30"/>
       <use xlink:href="#DejaVuSans-2e" x="63.623047"/>
       <use xlink:href="#DejaVuSans-34" x="95.410156"/>
      </g>
     </g>
    </g>
    <g id="ytick_4">
     <g id="line2d_12">
      <g>
       <use xlink:href="#m4017898807" x="57.6" y="147.9168" style="stroke: #000000; stroke-width: 0.8"/>
      </g>
     </g>
     <g id="text_13">
      <!-- 0.6 -->
      <g transform="translate(25.155 153.99555) scale(0.16 -0.16)">
       <use xlink:href="#DejaVuSans-30"/>
       <use xlink:href="#DejaVuSans-2e" x="63.623047"/>
       <use xlink:href="#DejaVuSans-36" x="95.410156"/>
      </g>
     </g>
    </g>
    <g id="ytick_5">
     <g id="line2d_13">
      <g>
       <use xlink:href="#m4017898807" x="57.6" y="94.6944" style="stroke: #000000; stroke-width: 0.8"/>
      </g>
     </g>
     <g id="text_14">
      <!-- 0.8 -->
      <g transform="translate(25.155 100.77315) scale(0.16 -0.16)">
       <defs>
        <path id="DejaVuSans-38" d="M 2034 2216 
Q 1584 2216 1326 1975 
Q 1069 1734 1069 1313 
Q 1069 891 1326 650 
Q 1584 409 2034 409 
Q 2484 409 2743 651 
Q 3003 894 3003 1313 
Q 3003 1734 2745 1975 
Q 2488 2216 2034 2216 
z
M 1403 2484 
Q 997 2584 770 2862 
Q 544 3141 544 3541 
Q 544 4100 942 4425 
Q 1341 4750 2034 4750 
Q 2731 4750 3128 4425 
Q 3525 4100 3525 3541 
Q 3525 3141 3298 2862 
Q 3072 2584 2669 2484 
Q 3125 2378 3379 2068 
Q 3634 1759 3634 1313 
Q 3634 634 3220 271 
Q 2806 -91 2034 -91 
Q 1263 -91 848 271 
Q 434 634 434 1313 
Q 434 1759 690 2068 
Q 947 2378 1403 2484 
z
M 1172 3481 
Q 1172 3119 1398 2916 
Q 1625 2713 2034 2713 
Q 2441 2713 2670 2916 
Q 2900 3119 2900 3481 
Q 2900 3844 2670 4047 
Q 2441 4250 2034 4250 
Q 1625 4250 1398 4047 
Q 1172 3844 1172 3481 
z
" transform="scale(0.015625)"/>
       </defs>
       <use xlink:href="#DejaVuSans-30"/>
       <use xlink:href="#DejaVuSans-2e" x="63.623047"/>
       <use xlink:href="#DejaVuSans-38" x="95.410156"/>
      </g>
     </g>
    </g>
    <g id="ytick_6">
     <g id="line2d_14">
      <g>
       <use xlink:href="#m4017898807" x="57.6" y="41.472" style="stroke: #000000; stroke-width: 0.8"/>
      </g>
     </g>
     <g id="text_15">
      <!-- 1.0 -->
      <g transform="translate(25.155 47.55075) scale(0.16 -0.16)">
       <use xlink:href="#DejaVuSans-31"/>
       <use xlink:href="#DejaVuSans-2e" x="63.623047"/>
       <use xlink:href="#DejaVuSans-30" x="95.410156"/>
      </g>
     </g>
    </g>
    <g id="text_16">
     <!-- Light interception -->
     <g transform="translate(13.411562 254.055656) rotate(-90) scale(0.18 -0.18)">
      <defs>
       <path id="DejaVuSans-4c" d="M 628 4666 
L 1259 4666 
L 1259 531 
L 3531 531 
L 3531 0 
L 628 0 
L 628 4666 
z
" transform="scale(0.015625)"/>
       <path id="DejaVuSans-67" d="M 2906 1791 
Q 2906 2416 2648 2759 
Q 2391 3103 1925 3103 
Q 1463 3103 1205 2759 
Q 947 2416 947 1791 
Q 947 1169 1205 825 
Q 1463 481 1925 481 
Q 2391 481 2648 825 
Q 2906 1169 2906 1791 
z
M 3481 434 
Q 3481 -459 3084 -895 
Q 2688 -1331 1869 -1331 
Q 1566 -1331 1297 -1286 
Q 1028 -1241 775 -1147 
L 775 -588 
Q 1028 -725 1275 -790 
Q 1522 -856 1778 -856 
Q 2344 -856 2625 -561 
Q 2906 -266 2906 331 
L 2906 616 
Q 2728 306 2450 153 
Q 2172 0 1784 0 
Q 1141 0 747 490 
Q 353 981 353 1791 
Q 353 2603 747 3093 
Q 1141 3584 1784 3584 
Q 2172 3584 2450 3431 
Q 2728 3278 2906 2969 
L 2906 3500 
L 3481 3500 
L 3481 434 
z
" transform="scale(0.015625)"/>
       <path id="DejaVuSans-68" d="M 3513 2113 
L 3513 0 
L 2938 0 
L 2938 2094 
Q 2938 2591 2744 2837 
Q 2550 3084 2163 3084 
Q 1697 3084 1428 2787 
Q 1159 2491 1159 1978 
L 1159 0 
L 581 0 
L 581 4863 
L 1159 4863 
L 1159 2956 
Q 1366 3272 1645 3428 
Q 1925 3584 2291 3584 
Q 2894 3584 3203 3211 
Q 3513 2838 3513 2113 
z
" transform="scale(0.015625)"/>
       <path id="DejaVuSans-63" d="M 3122 3366 
L 3122 2828 
Q 2878 2963 2633 3030 
Q 2388 3097 2138 3097 
Q 1578 3097 1268 2742 
Q 959 2388 959 1747 
Q 959 1106 1268 751 
Q 1578 397 2138 397 
Q 2388 397 2633 464 
Q 2878 531 3122 666 
L 3122 134 
Q 2881 22 2623 -34 
Q 2366 -91 2075 -91 
Q 1284 -91 818 406 
Q 353 903 353 1747 
Q 353 2603 823 3093 
Q 1294 3584 2113 3584 
Q 2378 3584 2631 3529 
Q 2884 3475 3122 3366 
z
" transform="scale(0.015625)"/>
       <path id="DejaVuSans-70" d="M 1159 525 
L 1159 -1331 
L 581 -1331 
L 581 3500 
L 1159 3500 
L 1159 2969 
Q 1341 3281 1617 3432 
Q 1894 3584 2278 3584 
Q 2916 3584 3314 3078 
Q 3713 2572 3713 1747 
Q 3713 922 3314 415 
Q 2916 -91 2278 -91 
Q 1894 -91 1617 61 
Q 1341 213 1159 525 
z
M 3116 1747 
Q 3116 2381 2855 2742 
Q 2594 3103 2138 3103 
Q 1681 3103 1420 2742 
Q 1159 2381 1159 1747 
Q 1159 1113 1420 752 
Q 1681 391 2138 391 
Q 2594 391 2855 752 
Q 3116 1113 3116 1747 
z
" transform="scale(0.015625)"/>
      </defs>
      <use xlink:href="#DejaVuSans-4c"/>
      <use xlink:href="#DejaVuSans-69" x="55.712891"/>
      <use xlink:href="#DejaVuSans-67" x="83.496094"/>
      <use xlink:href="#DejaVuSans-68" x="146.972656"/>
      <use xlink:href="#DejaVuSans-74" x="210.351562"/>
      <use xlink:href="#DejaVuSans-20" x="249.560547"/>
      <use xlink:href="#DejaVuSans-69" x="281.347656"/>
      <use xlink:href="#DejaVuSans-6e" x="309.130859"/>
      <use xlink:href="#DejaVuSans-74" x="372.509766"/>
      <use xlink:href="#DejaVuSans-65" x="411.71875"/>
      <use xlink:href="#DejaVuSans-72" x="473.242188"/>
      <use xlink:href="#DejaVuSans-63" x="512.105469"/>
      <use xlink:href="#DejaVuSans-65" x="567.085938"/>
      <use xlink:href="#DejaVuSans-70" x="628.609375"/>
      <use xlink:href="#DejaVuSans-74" x="692.085938"/>
      <use xlink:href="#DejaVuSans-69" x="731.294922"/>
      <use xlink:href="#DejaVuSans-6f" x="759.078125"/>
      <use xlink:href="#DejaVuSans-6e" x="820.259766"/>
     </g>
    </g>
   </g>
   <g id="line2d_15">
    <path d="M 58.110171 307.05337 
L 97.733486 274.27258 
L 137.3568 253.964544 
L 176.980114 241.570586 
L 216.603429 234.133161 
L 256.226743 229.749722 
L 295.850057 227.209184 
L 335.473371 225.750741 
L 375.096686 224.904493 
L 414.72 224.386644 
" clip-path="url(#pcdb9e1c351)" style="fill: none; stroke: #000000; stroke-width: 1.5; stroke-linecap: square"/>
    <defs>
     <path id="mdc6d617cf7" d="M 0 3 
C 0.795609 3 1.55874 2.683901 2.12132 2.12132 
C 2.683901 1.55874 3 0.795609 3 0 
C 3 -0.795609 2.683901 -1.55874 2.12132 -2.12132 
C 1.55874 -2.683901 0.795609 -3 0 -3 
C -0.795609 -3 -1.55874 -2.683901 -2.12132 -2.12132 
C -2.683901 -1.55874 -3 -0.795609 -3 0 
C -3 0.795609 -2.683901 1.55874 -2.12132 2.12132 
C -1.55874 2.683901 -0.795609 3 0 3 
z
" style="stroke: #000000"/>
    </defs>
    <g clip-path="url(#pcdb9e1c351)">
     <use xlink:href="#mdc6d617cf7" x="58.110171" y="307.05337" style="fill: #ffffff; stroke: #000000"/>
     <use xlink:href="#mdc6d617cf7" x="97.733486" y="274.27258" style="fill: #ffffff; stroke: #000000"/>
     <use xlink:href="#mdc6d617cf7" x="137.3568" y="253.964544" style="fill: #ffffff; stroke: #000000"/>
     <use xlink:href="#mdc6d617cf7" x="176.980114" y="241.570586" style="fill: #ffffff; stroke: #000000"/>
     <use xlink:href="#mdc6d617cf7" x="216.603429" y="234.133161" style="fill: #ffffff; stroke: #000000"/>
     <use xlink:href="#mdc6d617cf7" x="256.226743" y="229.749722" style="fill: #ffffff; stroke: #000000"/>
     <use xlink:href="#mdc6d617cf7" x="295.850057" y="227.209184" style="fill: #ffffff; stroke: #000000"/>
     <use xlink:href="#mdc6d617cf7" x="335.473371" y="225.750741" style="fill: #ffffff; stroke: #000000"/>
     <use xlink:href="#mdc6d617cf7" x="375.096686" y="224.904493" style="fill: #ffffff; stroke: #000000"/>
     <use xlink:href="#mdc6d617cf7" x="414.72" y="224.386644" style="fill: #ffffff; stroke: #000000"/>
    </g>
   </g>
   <g id="line2d_16">
    <path d="M 58.110171 307.05337 
L 97.733486 274.308124 
L 137.3568 254.195649 
L 176.980114 242.215128 
L 216.603429 235.404668 
L 256.226743 231.827245 
L 295.850057 230.225985 
L 335.473371 229.793479 
L 375.096686 230.01779 
L 414.72 230.579957 
" clip-path="url(#pcdb9e1c351)" style="fill: none; stroke: #000000; stroke-width: 1.5; stroke-linecap: square"/>
    <defs>
     <path id="mfba67a10d8" d="M 0 3 
C 0.795609 3 1.55874 2.683901 2.12132 2.12132 
C 2.683901 1.55874 3 0.795609 3 0 
C 3 -0.795609 2.683901 -1.55874 2.12132 -2.12132 
C 1.55874 -2.683901 0.795609 -3 0 -3 
C -0.795609 -3 -1.55874 -2.683901 -2.12132 -2.12132 
C -2.683901 -1.55874 -3 -0.795609 -3 0 
C -3 0.795609 -2.683901 1.55874 -2.12132 2.12132 
C -1.55874 2.683901 -0.795609 3 0 3 
z
" style="stroke: #000000"/>
    </defs>
    <g clip-path="url(#pcdb9e1c351)">
     <use xlink:href="#mfba67a10d8" x="58.110171" y="307.05337" style="stroke: #000000"/>
     <use xlink:href="#mfba67a10d8" x="97.733486" y="274.308124" style="stroke: #000000"/>
     <use xlink:href="#mfba67a10d8" x="137.3568" y="254.195649" style="stroke: #000000"/>
     <use xlink:href="#mfba67a10d8" x="176.980114" y="242.215128" style="stroke: #000000"/>
     <use xlink:href="#mfba67a10d8" x="216.603429" y="235.404668" style="stroke: #000000"/>
     <use xlink:href="#mfba67a10d8" x="256.226743" y="231.827245" style="stroke: #000000"/>
     <use xlink:href="#mfba67a10d8" x="295.850057" y="230.225985" style="stroke: #000000"/>
     <use xlink:href="#mfba67a10d8" x="335.473371" y="229.793479" style="stroke: #000000"/>
     <use xlink:href="#mfba67a10d8" x="375.096686" y="230.01779" style="stroke: #000000"/>
     <use xlink:href="#mfba67a10d8" x="414.72" y="230.579957" style="stroke: #000000"/>
    </g>
   </g>
   <g id="line2d_17">
    <path d="M 58.110171 306.787391 
L 97.733486 254.356803 
L 137.3568 216.875653 
L 176.980114 190.077782 
L 216.603429 170.935847 
L 256.226743 157.293529 
L 295.850057 147.609247 
L 335.473371 140.776986 
L 375.096686 136.000591 
L 414.72 132.705242 
" clip-path="url(#pcdb9e1c351)" style="fill: none; stroke: #000000; stroke-width: 1.5; stroke-linecap: square"/>
    <defs>
     <path id="m599e6d2845" d="M -0 3 
L 3 -3 
L -3 -3 
z
" style="stroke: #000000; stroke-linejoin: miter"/>
    </defs>
    <g clip-path="url(#pcdb9e1c351)">
     <use xlink:href="#m599e6d2845" x="58.110171" y="306.787391" style="fill: #ffffff; stroke: #000000; stroke-linejoin: miter"/>
     <use xlink:href="#m599e6d2845" x="97.733486" y="254.356803" style="fill: #ffffff; stroke: #000000; stroke-linejoin: miter"/>
     <use xlink:href="#m599e6d2845" x="137.3568" y="216.875653" style="fill: #ffffff; stroke: #000000; stroke-linejoin: miter"/>
     <use xlink:href="#m599e6d2845" x="176.980114" y="190.077782" style="fill: #ffffff; stroke: #000000; stroke-linejoin: miter"/>
     <use xlink:href="#m599e6d2845" x="216.603429" y="170.935847" style="fill: #ffffff; stroke: #000000; stroke-linejoin: miter"/>
     <use xlink:href="#m599e6d2845" x="256.226743" y="157.293529" style="fill: #ffffff; stroke: #000000; stroke-linejoin: miter"/>
     <use xlink:href="#m599e6d2845" x="295.850057" y="147.609247" style="fill: #ffffff; stroke: #000000; stroke-linejoin: miter"/>
     <use xlink:href="#m599e6d2845" x="335.473371" y="140.776986" style="fill: #ffffff; stroke: #000000; stroke-linejoin: miter"/>
     <use xlink:href="#m599e6d2845" x="375.096686" y="136.000591" style="fill: #ffffff; stroke: #000000; stroke-linejoin: miter"/>
     <use xlink:href="#m599e6d2845" x="414.72" y="132.705242" style="fill: #ffffff; stroke: #000000; stroke-linejoin: miter"/>
    </g>
   </g>
   <g id="line2d_18">
    <path d="M 58.110171 306.787391 
L 97.733486 254.321258 
L 137.3568 216.644548 
L 176.980114 189.43324 
L 216.603429 169.66434 
L 256.226743 155.216006 
L 295.850057 144.592446 
L 335.473371 136.734247 
L 375.096686 130.887295 
L 414.72 126.511929 
" clip-path="url(#pcdb9e1c351)" style="fill: none; stroke: #000000; stroke-width: 1.5; stroke-linecap: square"/>
    <defs>
     <path id="m870a8cc871" d="M -0 3 
L 3 -3 
L -3 -3 
z
" style="stroke: #000000; stroke-linejoin: miter"/>
    </defs>
    <g clip-path="url(#pcdb9e1c351)">
     <use xlink:href="#m870a8cc871" x="58.110171" y="306.787391" style="stroke: #000000; stroke-linejoin: miter"/>
     <use xlink:href="#m870a8cc871" x="97.733486" y="254.321258" style="stroke: #000000; stroke-linejoin: miter"/>
     <use xlink:href="#m870a8cc871" x="137.3568" y="216.644548" style="stroke: #000000; stroke-linejoin: miter"/>
     <use xlink:href="#m870a8cc871" x="176.980114" y="189.43324" style="stroke: #000000; stroke-linejoin: miter"/>
     <use xlink:href="#m870a8cc871" x="216.603429" y="169.66434" style="stroke: #000000; stroke-linejoin: miter"/>
     <use xlink:href="#m870a8cc871" x="256.226743" y="155.216006" style="stroke: #000000; stroke-linejoin: miter"/>
     <use xlink:href="#m870a8cc871" x="295.850057" y="144.592446" style="stroke: #000000; stroke-linejoin: miter"/>
     <use xlink:href="#m870a8cc871" x="335.473371" y="136.734247" style="stroke: #000000; stroke-linejoin: miter"/>
     <use xlink:href="#m870a8cc871" x="375.096686" y="130.887295" style="stroke: #000000; stroke-linejoin: miter"/>
     <use xlink:href="#m870a8cc871" x="414.72" y="126.511929" style="stroke: #000000; stroke-linejoin: miter"/>
    </g>
   </g>
   <g id="patch_3">
    <path d="M 57.6 307.584 
L 57.6 41.472 
" style="fill: none; stroke: #000000; stroke-width: 0.8; stroke-linejoin: miter; stroke-linecap: square"/>
   </g>
   <g id="patch_4">
    <path d="M 414.72 307.584 
L 414.72 41.472 
" style="fill: none; stroke: #000000; stroke-width: 0.8; stroke-linejoin: miter; stroke-linecap: square"/>
   </g>
   <g id="patch_5">
    <path d="M 57.6 307.584 
L 414.72 307.584 
" style="fill: none; stroke: #000000; stroke-width: 0.8; stroke-linejoin: miter; stroke-linecap: square"/>
   </g>
   <g id="patch_6">
    <path d="M 57.6 41.472 
L 414.72 41.472 
" style="fill: none; stroke: #000000; stroke-width: 0.8; stroke-linejoin: miter; stroke-linecap: square"/>
   </g>
   <g id="legend_1">
    <g id="line2d_19">
     <path d="M 70.2 59.809812 
L 84.2 59.809812 
L 98.2 59.809812 
" style="fill: none; stroke: #000000; stroke-width: 1.5; stroke-linecap: square"/>
     <g>
      <use xlink:href="#mdc6d617cf7" x="84.2" y="59.809812" style="fill: #ffffff; stroke: #000000"/>
     </g>
    </g>
    <g id="text_17">
     <!-- Wallace SP1 $k$=0.4 $L$%=50 $h$=0.5 -->
     <g transform="translate(109.4 64.709812) scale(0.14 -0.14)">
      <defs>
       <path id="DejaVuSans-57" d="M 213 4666 
L 850 4666 
L 1831 722 
L 2809 4666 
L 3519 4666 
L 4500 722 
L 5478 4666 
L 6119 4666 
L 4947 0 
L 4153 0 
L 3169 4050 
L 2175 0 
L 1381 0 
L 213 4666 
z
" transform="scale(0.015625)"/>
       <path id="DejaVuSans-53" d="M 3425 4513 
L 3425 3897 
Q 3066 4069 2747 4153 
Q 2428 4238 2131 4238 
Q 1616 4238 1336 4038 
Q 1056 3838 1056 3469 
Q 1056 3159 1242 3001 
Q 1428 2844 1947 2747 
L 2328 2669 
Q 3034 2534 3370 2195 
Q 3706 1856 3706 1288 
Q 3706 609 3251 259 
Q 2797 -91 1919 -91 
Q 1588 -91 1214 -16 
Q 841 59 441 206 
L 441 856 
Q 825 641 1194 531 
Q 1563 422 1919 422 
Q 2459 422 2753 634 
Q 3047 847 3047 1241 
Q 3047 1584 2836 1778 
Q 2625 1972 2144 2069 
L 1759 2144 
Q 1053 2284 737 2584 
Q 422 2884 422 3419 
Q 422 4038 858 4394 
Q 1294 4750 2059 4750 
Q 2388 4750 2728 4690 
Q 3069 4631 3425 4513 
z
" transform="scale(0.015625)"/>
       <path id="DejaVuSans-50" d="M 1259 4147 
L 1259 2394 
L 2053 2394 
Q 2494 2394 2734 2622 
Q 2975 2850 2975 3272 
Q 2975 3691 2734 3919 
Q 2494 4147 2053 4147 
L 1259 4147 
z
M 628 4666 
L 2053 4666 
Q 2838 4666 3239 4311 
Q 3641 3956 3641 3272 
Q 3641 2581 3239 2228 
Q 2838 1875 2053 1875 
L 1259 1875 
L 1259 0 
L 628 0 
L 628 4666 
z
" transform="scale(0.015625)"/>
       <path id="DejaVuSans-Oblique-6b" d="M 1172 4863 
L 1747 4863 
L 1197 2028 
L 3169 3500 
L 3916 3500 
L 1716 1825 
L 3322 0 
L 2625 0 
L 1131 1709 
L 800 0 
L 225 0 
L 1172 4863 
z
" transform="scale(0.015625)"/>
       <path id="DejaVuSans-3d" d="M 678 2906 
L 4684 2906 
L 4684 2381 
L 678 2381 
L 678 2906 
z
M 678 1631 
L 4684 1631 
L 4684 1100 
L 678 1100 
L 678 1631 
z
" transform="scale(0.015625)"/>
       <path id="DejaVuSans-Oblique-4c" d="M 1075 4666 
L 1709 4666 
L 909 525 
L 3181 525 
L 3078 0 
L 172 0 
L 1075 4666 
z
" transform="scale(0.015625)"/>
       <path id="DejaVuSans-25" d="M 4653 2053 
Q 4381 2053 4226 1822 
Q 4072 1591 4072 1178 
Q 4072 772 4226 539 
Q 4381 306 4653 306 
Q 4919 306 5073 539 
Q 5228 772 5228 1178 
Q 5228 1588 5073 1820 
Q 4919 2053 4653 2053 
z
M 4653 2450 
Q 5147 2450 5437 2106 
Q 5728 1763 5728 1178 
Q 5728 594 5436 251 
Q 5144 -91 4653 -91 
Q 4153 -91 3862 251 
Q 3572 594 3572 1178 
Q 3572 1766 3864 2108 
Q 4156 2450 4653 2450 
z
M 1428 4353 
Q 1159 4353 1004 4120 
Q 850 3888 850 3481 
Q 850 3069 1003 2837 
Q 1156 2606 1428 2606 
Q 1700 2606 1854 2837 
Q 2009 3069 2009 3481 
Q 2009 3884 1853 4118 
Q 1697 4353 1428 4353 
z
M 4250 4750 
L 4750 4750 
L 1831 -91 
L 1331 -91 
L 4250 4750 
z
M 1428 4750 
Q 1922 4750 2215 4408 
Q 2509 4066 2509 3481 
Q 2509 2891 2217 2550 
Q 1925 2209 1428 2209 
Q 931 2209 642 2551 
Q 353 2894 353 3481 
Q 353 4063 643 4406 
Q 934 4750 1428 4750 
z
" transform="scale(0.015625)"/>
       <path id="DejaVuSans-Oblique-68" d="M 3566 2113 
L 3156 0 
L 2578 0 
L 2988 2091 
Q 3016 2238 3031 2350 
Q 3047 2463 3047 2528 
Q 3047 2791 2881 2937 
Q 2716 3084 2419 3084 
Q 1956 3084 1617 2771 
Q 1278 2459 1178 1941 
L 800 0 
L 225 0 
L 1172 4863 
L 1747 4863 
L 1375 2950 
Q 1594 3244 1934 3414 
Q 2275 3584 2650 3584 
Q 3113 3584 3367 3334 
Q 3622 3084 3622 2631 
Q 3622 2519 3608 2391 
Q 3594 2263 3566 2113 
z
" transform="scale(0.015625)"/>
      </defs>
      <use xlink:href="#DejaVuSans-57" transform="translate(0 0.015625)"/>
      <use xlink:href="#DejaVuSans-61" transform="translate(98.876953 0.015625)"/>
      <use xlink:href="#DejaVuSans-6c" transform="translate(160.15625 0.015625)"/>
      <use xlink:href="#DejaVuSans-6c" transform="translate(187.939453 0.015625)"/>
      <use xlink:href="#DejaVuSans-61" transform="translate(215.722656 0.015625)"/>
      <use xlink:href="#DejaVuSans-63" transform="translate(277.001953 0.015625)"/>
      <use xlink:href="#DejaVuSans-65" transform="translate(331.982422 0.015625)"/>
      <use xlink:href="#DejaVuSans-20" transform="translate(393.505859 0.015625)"/>
      <use xlink:href="#DejaVuSans-53" transform="translate(425.292969 0.015625)"/>
      <use xlink:href="#DejaVuSans-50" transform="translate(488.769531 0.015625)"/>
      <use xlink:href="#DejaVuSans-31" transform="translate(549.072266 0.015625)"/>
      <use xlink:href="#DejaVuSans-20" transform="translate(612.695312 0.015625)"/>
      <use xlink:href="#DejaVuSans-Oblique-6b" transform="translate(644.482422 0.015625)"/>
      <use xlink:href="#DejaVuSans-3d" transform="translate(702.392578 0.015625)"/>
      <use xlink:href="#DejaVuSans-30" transform="translate(786.181641 0.015625)"/>
      <use xlink:href="#DejaVuSans-2e" transform="translate(849.804688 0.015625)"/>
      <use xlink:href="#DejaVuSans-34" transform="translate(881.591797 0.015625)"/>
      <use xlink:href="#DejaVuSans-20" transform="translate(945.214844 0.015625)"/>
      <use xlink:href="#DejaVuSans-Oblique-4c" transform="translate(977.001953 0.015625)"/>
      <use xlink:href="#DejaVuSans-25" transform="translate(1032.714844 0.015625)"/>
      <use xlink:href="#DejaVuSans-3d" transform="translate(1127.734375 0.015625)"/>
      <use xlink:href="#DejaVuSans-35" transform="translate(1211.523438 0.015625)"/>
      <use xlink:href="#DejaVuSans-30" transform="translate(1275.146484 0.015625)"/>
      <use xlink:href="#DejaVuSans-20" transform="translate(1338.769531 0.015625)"/>
      <use xlink:href="#DejaVuSans-Oblique-68" transform="translate(1370.556641 0.015625)"/>
      <use xlink:href="#DejaVuSans-3d" transform="translate(1433.935547 0.015625)"/>
      <use xlink:href="#DejaVuSans-30" transform="translate(1517.724609 0.015625)"/>
      <use xlink:href="#DejaVuSans-2e" transform="translate(1581.347656 0.015625)"/>
      <use xlink:href="#DejaVuSans-35" transform="translate(1613.134766 0.015625)"/>
     </g>
    </g>
    <g id="line2d_20">
     <path d="M 70.2 80.361375 
L 84.2 80.361375 
L 98.2 80.361375 
" style="fill: none; stroke: #000000; stroke-width: 1.5; stroke-linecap: square"/>
     <g>
      <use xlink:href="#mfba67a10d8" x="84.2" y="80.361375" style="stroke: #000000"/>
     </g>
    </g>
    <g id="text_18">
     <!-- Cycles SP1 $k$=0.4 $L$%=50 $h$=0.5 -->
     <g transform="translate(109.4 85.261375) scale(0.14 -0.14)">
      <defs>
       <path id="DejaVuSans-43" d="M 4122 4306 
L 4122 3641 
Q 3803 3938 3442 4084 
Q 3081 4231 2675 4231 
Q 1875 4231 1450 3742 
Q 1025 3253 1025 2328 
Q 1025 1406 1450 917 
Q 1875 428 2675 428 
Q 3081 428 3442 575 
Q 3803 722 4122 1019 
L 4122 359 
Q 3791 134 3420 21 
Q 3050 -91 2638 -91 
Q 1578 -91 968 557 
Q 359 1206 359 2328 
Q 359 3453 968 4101 
Q 1578 4750 2638 4750 
Q 3056 4750 3426 4639 
Q 3797 4528 4122 4306 
z
" transform="scale(0.015625)"/>
       <path id="DejaVuSans-79" d="M 2059 -325 
Q 1816 -950 1584 -1140 
Q 1353 -1331 966 -1331 
L 506 -1331 
L 506 -850 
L 844 -850 
Q 1081 -850 1212 -737 
Q 1344 -625 1503 -206 
L 1606 56 
L 191 3500 
L 800 3500 
L 1894 763 
L 2988 3500 
L 3597 3500 
L 2059 -325 
z
" transform="scale(0.015625)"/>
       <path id="DejaVuSans-73" d="M 2834 3397 
L 2834 2853 
Q 2591 2978 2328 3040 
Q 2066 3103 1784 3103 
Q 1356 3103 1142 2972 
Q 928 2841 928 2578 
Q 928 2378 1081 2264 
Q 1234 2150 1697 2047 
L 1894 2003 
Q 2506 1872 2764 1633 
Q 3022 1394 3022 966 
Q 3022 478 2636 193 
Q 2250 -91 1575 -91 
Q 1294 -91 989 -36 
Q 684 19 347 128 
L 347 722 
Q 666 556 975 473 
Q 1284 391 1588 391 
Q 1994 391 2212 530 
Q 2431 669 2431 922 
Q 2431 1156 2273 1281 
Q 2116 1406 1581 1522 
L 1381 1569 
Q 847 1681 609 1914 
Q 372 2147 372 2553 
Q 372 3047 722 3315 
Q 1072 3584 1716 3584 
Q 2034 3584 2315 3537 
Q 2597 3491 2834 3397 
z
" transform="scale(0.015625)"/>
      </defs>
      <use xlink:href="#DejaVuSans-43" transform="translate(0 0.015625)"/>
      <use xlink:href="#DejaVuSans-79" transform="translate(69.824219 0.015625)"/>
      <use xlink:href="#DejaVuSans-63" transform="translate(129.003906 0.015625)"/>
      <use xlink:href="#DejaVuSans-6c" transform="translate(183.984375 0.015625)"/>
      <use xlink:href="#DejaVuSans-65" transform="translate(211.767578 0.015625)"/>
      <use xlink:href="#DejaVuSans-73" transform="translate(273.291016 0.015625)"/>
      <use xlink:href="#DejaVuSans-20" transform="translate(325.390625 0.015625)"/>
      <use xlink:href="#DejaVuSans-53" transform="translate(357.177734 0.015625)"/>
      <use xlink:href="#DejaVuSans-50" transform="translate(420.654297 0.015625)"/>
      <use xlink:href="#DejaVuSans-31" transform="translate(480.957031 0.015625)"/>
      <use xlink:href="#DejaVuSans-20" transform="translate(544.580078 0.015625)"/>
      <use xlink:href="#DejaVuSans-Oblique-6b" transform="translate(576.367188 0.015625)"/>
      <use xlink:href="#DejaVuSans-3d" transform="translate(634.277344 0.015625)"/>
      <use xlink:href="#DejaVuSans-30" transform="translate(718.066406 0.015625)"/>
      <use xlink:href="#DejaVuSans-2e" transform="translate(781.689453 0.015625)"/>
      <use xlink:href="#DejaVuSans-34" transform="translate(813.476562 0.015625)"/>
      <use xlink:href="#DejaVuSans-20" transform="translate(877.099609 0.015625)"/>
      <use xlink:href="#DejaVuSans-Oblique-4c" transform="translate(908.886719 0.015625)"/>
      <use xlink:href="#DejaVuSans-25" transform="translate(964.599609 0.015625)"/>
      <use xlink:href="#DejaVuSans-3d" transform="translate(1059.619141 0.015625)"/>
      <use xlink:href="#DejaVuSans-35" transform="translate(1143.408203 0.015625)"/>
      <use xlink:href="#DejaVuSans-30" transform="translate(1207.03125 0.015625)"/>
      <use xlink:href="#DejaVuSans-20" transform="translate(1270.654297 0.015625)"/>
      <use xlink:href="#DejaVuSans-Oblique-68" transform="translate(1302.441406 0.015625)"/>
      <use xlink:href="#DejaVuSans-3d" transform="translate(1365.820312 0.015625)"/>
      <use xlink:href="#DejaVuSans-30" transform="translate(1449.609375 0.015625)"/>
      <use xlink:href="#DejaVuSans-2e" transform="translate(1513.232422 0.015625)"/>
      <use xlink:href="#DejaVuSans-35" transform="translate(1545.019531 0.015625)"/>
     </g>
    </g>
    <g id="line2d_21">
     <path d="M 70.2 100.939188 
L 84.2 100.939188 
L 98.2 100.939188 
" style="fill: none; stroke: #000000; stroke-width: 1.5; stroke-linecap: square"/>
     <g>
      <use xlink:href="#m599e6d2845" x="84.2" y="100.939188" style="fill: #ffffff; stroke: #000000; stroke-linejoin: miter"/>
     </g>
    </g>
    <g id="text_19">
     <!-- Wallace SP2 $k$=0.6 $L$%=50 $h$=1.0 -->
     <g transform="translate(109.4 105.839188) scale(0.14 -0.14)">
      <use xlink:href="#DejaVuSans-57" transform="translate(0 0.015625)"/>
      <use xlink:href="#DejaVuSans-61" transform="translate(98.876953 0.015625)"/>
      <use xlink:href="#DejaVuSans-6c" transform="translate(160.15625 0.015625)"/>
      <use xlink:href="#DejaVuSans-6c" transform="translate(187.939453 0.015625)"/>
      <use xlink:href="#DejaVuSans-61" transform="translate(215.722656 0.015625)"/>
      <use xlink:href="#DejaVuSans-63" transform="translate(277.001953 0.015625)"/>
      <use xlink:href="#DejaVuSans-65" transform="translate(331.982422 0.015625)"/>
      <use xlink:href="#DejaVuSans-20" transform="translate(393.505859 0.015625)"/>
      <use xlink:href="#DejaVuSans-53" transform="translate(425.292969 0.015625)"/>
      <use xlink:href="#DejaVuSans-50" transform="translate(488.769531 0.015625)"/>
      <use xlink:href="#DejaVuSans-32" transform="translate(549.072266 0.015625)"/>
      <use xlink:href="#DejaVuSans-20" transform="translate(612.695312 0.015625)"/>
      <use xlink:href="#DejaVuSans-Oblique-6b" transform="translate(644.482422 0.015625)"/>
      <use xlink:href="#DejaVuSans-3d" transform="translate(702.392578 0.015625)"/>
      <use xlink:href="#DejaVuSans-30" transform="translate(786.181641 0.015625)"/>
      <use xlink:href="#DejaVuSans-2e" transform="translate(849.804688 0.015625)"/>
      <use xlink:href="#DejaVuSans-36" transform="translate(881.591797 0.015625)"/>
      <use xlink:href="#DejaVuSans-20" transform="translate(945.214844 0.015625)"/>
      <use xlink:href="#DejaVuSans-Oblique-4c" transform="translate(977.001953 0.015625)"/>
      <use xlink:href="#DejaVuSans-25" transform="translate(1032.714844 0.015625)"/>
      <use xlink:href="#DejaVuSans-3d" transform="translate(1127.734375 0.015625)"/>
      <use xlink:href="#DejaVuSans-35" transform="translate(1211.523438 0.015625)"/>
      <use xlink:href="#DejaVuSans-30" transform="translate(1275.146484 0.015625)"/>
      <use xlink:href="#DejaVuSans-20" transform="translate(1338.769531 0.015625)"/>
      <use xlink:href="#DejaVuSans-Oblique-68" transform="translate(1370.556641 0.015625)"/>
      <use xlink:href="#DejaVuSans-3d" transform="translate(1433.935547 0.015625)"/>
      <use xlink:href="#DejaVuSans-31" transform="translate(1517.724609 0.015625)"/>
      <use xlink:href="#DejaVuSans-2e" transform="translate(1581.347656 0.015625)"/>
      <use xlink:href="#DejaVuSans-30" transform="translate(1613.134766 0.015625)"/>
     </g>
    </g>
    <g id="line2d_22">
     <path d="M 70.2 121.49075 
L 84.2 121.49075 
L 98.2 121.49075 
" style="fill: none; stroke: #000000; stroke-width: 1.5; stroke-linecap: square"/>
     <g>
      <use xlink:href="#m870a8cc871" x="84.2" y="121.49075" style="stroke: #000000; stroke-linejoin: miter"/>
     </g>
    </g>
    <g id="text_20">
     <!-- Cycles SP2 $k$=0.6 $L$%=50 $h$=1.0 -->
     <g transform="translate(109.4 126.39075) scale(0.14 -0.14)">
      <use xlink:href="#DejaVuSans-43" transform="translate(0 0.015625)"/>
      <use xlink:href="#DejaVuSans-79" transform="translate(69.824219 0.015625)"/>
      <use xlink:href="#DejaVuSans-63" transform="translate(129.003906 0.015625)"/>
      <use xlink:href="#DejaVuSans-6c" transform="translate(183.984375 0.015625)"/>
      <use xlink:href="#DejaVuSans-65" transform="translate(211.767578 0.015625)"/>
      <use xlink:href="#DejaVuSans-73" transform="translate(273.291016 0.015625)"/>
      <use xlink:href="#DejaVuSans-20" transform="translate(325.390625 0.015625)"/>
      <use xlink:href="#DejaVuSans-53" transform="translate(357.177734 0.015625)"/>
      <use xlink:href="#DejaVuSans-50" transform="translate(420.654297 0.015625)"/>
      <use xlink:href="#DejaVuSans-32" transform="translate(480.957031 0.015625)"/>
      <use xlink:href="#DejaVuSans-20" transform="translate(544.580078 0.015625)"/>
      <use xlink:href="#DejaVuSans-Oblique-6b" transform="translate(576.367188 0.015625)"/>
      <use xlink:href="#DejaVuSans-3d" transform="translate(634.277344 0.015625)"/>
      <use xlink:href="#DejaVuSans-30" transform="translate(718.066406 0.015625)"/>
      <use xlink:href="#DejaVuSans-2e" transform="translate(781.689453 0.015625)"/>
      <use xlink:href="#DejaVuSans-36" transform="translate(813.476562 0.015625)"/>
      <use xlink:href="#DejaVuSans-20" transform="translate(877.099609 0.015625)"/>
      <use xlink:href="#DejaVuSans-Oblique-4c" transform="translate(908.886719 0.015625)"/>
      <use xlink:href="#DejaVuSans-25" transform="translate(964.599609 0.015625)"/>
      <use xlink:href="#DejaVuSans-3d" transform="translate(1059.619141 0.015625)"/>
      <use xlink:href="#DejaVuSans-35" transform="translate(1143.408203 0.015625)"/>
      <use xlink:href="#DejaVuSans-30" transform="translate(1207.03125 0.015625)"/>
      <use xlink:href="#DejaVuSans-20" transform="translate(1270.654297 0.015625)"/>
      <use xlink:href="#DejaVuSans-Oblique-68" transform="translate(1302.441406 0.015625)"/>
      <use xlink:href="#DejaVuSans-3d" transform="translate(1365.820312 0.015625)"/>
      <use xlink:href="#DejaVuSans-31" transform="translate(1449.609375 0.015625)"/>
      <use xlink:href="#DejaVuSans-2e" transform="translate(1513.232422 0.015625)"/>
      <use xlink:href="#DejaVuSans-30" transform="translate(1545.019531 0.015625)"/>
     </g>
    </g>
   </g>
  </g>
 </g>
 <defs>
  <clipPath id="pcdb9e1c351">
   <rect x="57.6" y="41.472" width="357.12" height="266.112"/>
  </clipPath>
 </defs>
</svg>
